<mxfile host="app.diagrams.net" agent="Mozilla/5.0 (Windows NT 10.0; Win64; x64) AppleWebKit/537.36 (KHTML, like Gecko) Chrome/140.0.0.0 Safari/537.36" version="28.2.5">
  <diagram name="Page-1" id="XIqqTMS4WJ9DYkAOLX7r">
    <mxGraphModel dx="1426" dy="863" grid="1" gridSize="10" guides="1" tooltips="1" connect="1" arrows="1" fold="1" page="1" pageScale="1" pageWidth="1654" pageHeight="1169" math="0" shadow="0">
      <root>
        <mxCell id="0" />
        <mxCell id="1" parent="0" />
        <mxCell id="vs-SE0_Q2x5BFznHqj6H-2" value="" style="verticalLabelPosition=bottom;html=1;verticalAlign=top;align=center;shape=mxgraph.floorplan.room;strokeColor=none;fillColor=#000000;" parent="1" vertex="1">
          <mxGeometry x="252.5" y="324" width="65" height="107" as="geometry" />
        </mxCell>
        <mxCell id="vs-SE0_Q2x5BFznHqj6H-3" value="" style="verticalLabelPosition=bottom;html=1;verticalAlign=top;align=center;shape=mxgraph.floorplan.doorLeft;aspect=fixed;strokeColor=light-dark(#000000,#000000);fillColor=default;strokeWidth=0.7874;" parent="1" vertex="1">
          <mxGeometry x="317.5" y="356" width="24.47" height="26" as="geometry" />
        </mxCell>
        <mxCell id="vs-SE0_Q2x5BFznHqj6H-5" value="" style="verticalLabelPosition=bottom;html=1;verticalAlign=top;align=center;shape=mxgraph.floorplan.wall;fillColor=strokeColor;direction=south;strokeColor=light-dark(#000000,#000000);wallThickness=4;" parent="1" vertex="1">
          <mxGeometry x="245.5" y="239" width="19" height="86" as="geometry" />
        </mxCell>
        <mxCell id="vs-SE0_Q2x5BFznHqj6H-6" value="" style="verticalLabelPosition=bottom;html=1;verticalAlign=top;align=center;shape=mxgraph.floorplan.wall;direction=south;strokeColor=light-dark(#000000,#000000);fillColor=#000000;" parent="1" vertex="1">
          <mxGeometry x="252.5" y="188" width="11" height="52" as="geometry" />
        </mxCell>
        <mxCell id="vs-SE0_Q2x5BFznHqj6H-7" value="" style="verticalLabelPosition=bottom;html=1;verticalAlign=top;align=center;shape=mxgraph.floorplan.wall;direction=south;wallThickness=4;rotation=90;" parent="1" vertex="1">
          <mxGeometry x="256.5" y="172" width="19" height="27" as="geometry" />
        </mxCell>
        <mxCell id="vs-SE0_Q2x5BFznHqj6H-8" value="" style="verticalLabelPosition=bottom;html=1;verticalAlign=top;align=center;shape=mxgraph.floorplan.window;fillColor=light-dark(#FFFFFF,#FFFFFF);strokeColor=light-dark(#000000,#000000);wallThickness=5;" parent="1" vertex="1">
          <mxGeometry x="279.5" y="181" width="90" height="10" as="geometry" />
        </mxCell>
        <mxCell id="vs-SE0_Q2x5BFznHqj6H-9" value="" style="verticalLabelPosition=bottom;html=1;verticalAlign=top;align=center;shape=mxgraph.floorplan.wall;direction=south;wallThickness=4;rotation=90;" parent="1" vertex="1">
          <mxGeometry x="369.5" y="176" width="19" height="19" as="geometry" />
        </mxCell>
        <mxCell id="vs-SE0_Q2x5BFznHqj6H-10" value="" style="verticalLabelPosition=bottom;html=1;verticalAlign=top;align=center;shape=mxgraph.floorplan.wall;direction=south;strokeColor=light-dark(#000000,#000000);" parent="1" vertex="1">
          <mxGeometry x="387.5" y="154" width="11" height="54" as="geometry" />
        </mxCell>
        <mxCell id="vs-SE0_Q2x5BFznHqj6H-12" value="" style="verticalLabelPosition=bottom;html=1;verticalAlign=top;align=center;shape=mxgraph.floorplan.wallCorner;direction=north;fillColor=light-dark(#FFFFFF,#FFFFFF);gradientColor=none;strokeColor=light-dark(#000000,#000000);wallThickness=4;" parent="1" vertex="1">
          <mxGeometry x="387.5" y="208" width="73" height="74" as="geometry" />
        </mxCell>
        <mxCell id="vs-SE0_Q2x5BFznHqj6H-13" value="" style="verticalLabelPosition=bottom;html=1;verticalAlign=top;align=center;shape=mxgraph.floorplan.wall;direction=south;wallThickness=4;rotation=90;" parent="1" vertex="1">
          <mxGeometry x="389.5" y="141" width="19" height="21" as="geometry" />
        </mxCell>
        <mxCell id="vs-SE0_Q2x5BFznHqj6H-14" value="" style="verticalLabelPosition=bottom;html=1;verticalAlign=top;align=center;shape=mxgraph.floorplan.window;fillColor=light-dark(#FFFFFF,#FFFFFF);strokeColor=light-dark(#000000,#000000);wallThickness=5;" parent="1" vertex="1">
          <mxGeometry x="409.5" y="147" width="80" height="10" as="geometry" />
        </mxCell>
        <mxCell id="vs-SE0_Q2x5BFznHqj6H-15" value="" style="verticalLabelPosition=bottom;html=1;verticalAlign=top;align=center;shape=mxgraph.floorplan.wall;direction=south;wallThickness=4;rotation=90;" parent="1" vertex="1">
          <mxGeometry x="490.5" y="142" width="19" height="21" as="geometry" />
        </mxCell>
        <mxCell id="KtzTF3C9ymT0nLvdZL6y-1" value="" style="verticalLabelPosition=bottom;html=1;verticalAlign=top;align=center;shape=mxgraph.floorplan.wall;fillColor=strokeColor;direction=south;strokeColor=light-dark(#000000,#000000);wallThickness=11;rotation=-180;" parent="1" vertex="1">
          <mxGeometry x="600.5" y="155" width="19" height="72" as="geometry" />
        </mxCell>
        <mxCell id="KtzTF3C9ymT0nLvdZL6y-2" value="" style="verticalLabelPosition=bottom;html=1;verticalAlign=top;align=center;shape=mxgraph.floorplan.wall;direction=south;wallThickness=4;rotation=90;" parent="1" vertex="1">
          <mxGeometry x="601.5" y="130" width="19" height="45" as="geometry" />
        </mxCell>
        <mxCell id="KtzTF3C9ymT0nLvdZL6y-3" value="" style="verticalLabelPosition=bottom;html=1;verticalAlign=top;align=center;shape=mxgraph.floorplan.wall;direction=south;wallThickness=4;rotation=-180;" parent="1" vertex="1">
          <mxGeometry x="491.5" y="154" width="20" height="126" as="geometry" />
        </mxCell>
        <mxCell id="KtzTF3C9ymT0nLvdZL6y-4" value="" style="verticalLabelPosition=bottom;html=1;verticalAlign=top;align=center;shape=mxgraph.floorplan.wallCorner;direction=north;fillColor=light-dark(#FFFFFF,#FFFFFF);gradientColor=none;strokeColor=light-dark(#000000,#000000);wallThickness=4;rotation=-90;" parent="1" vertex="1">
          <mxGeometry x="552" y="217.5" width="55" height="73" as="geometry" />
        </mxCell>
        <mxCell id="KtzTF3C9ymT0nLvdZL6y-5" value="" style="verticalLabelPosition=bottom;html=1;verticalAlign=top;align=center;shape=mxgraph.floorplan.window;fillColor=light-dark(#FFFFFF,#FFFFFF);strokeColor=light-dark(#000000,#000000);wallThickness=5;" parent="1" vertex="1">
          <mxGeometry x="510.5" y="147" width="78" height="10" as="geometry" />
        </mxCell>
        <mxCell id="KtzTF3C9ymT0nLvdZL6y-6" value="" style="verticalLabelPosition=bottom;html=1;verticalAlign=top;align=center;shape=mxgraph.floorplan.window;fillColor=light-dark(#FFFFFF,#FFFFFF);strokeColor=light-dark(#000000,#000000);wallThickness=5;" parent="1" vertex="1">
          <mxGeometry x="633.5" y="147" width="78" height="10" as="geometry" />
        </mxCell>
        <mxCell id="KtzTF3C9ymT0nLvdZL6y-7" value="" style="verticalLabelPosition=bottom;html=1;verticalAlign=top;align=center;shape=mxgraph.floorplan.wall;direction=south;wallThickness=4;rotation=90;" parent="1" vertex="1">
          <mxGeometry x="714" y="139.5" width="19" height="24" as="geometry" />
        </mxCell>
        <mxCell id="KtzTF3C9ymT0nLvdZL6y-8" value="" style="verticalLabelPosition=bottom;html=1;verticalAlign=top;align=center;shape=mxgraph.floorplan.wall;fillColor=strokeColor;direction=south;strokeColor=light-dark(#000000,#000000);wallThickness=10;rotation=-180;" parent="1" vertex="1">
          <mxGeometry x="721.5" y="154" width="19" height="38" as="geometry" />
        </mxCell>
        <mxCell id="O2O5Myb_N9L3xyK0cwro-1" value="" style="verticalLabelPosition=bottom;html=1;verticalAlign=top;align=center;shape=mxgraph.floorplan.window;fillColor=light-dark(#FFFFFF,#FFFFFF);strokeColor=light-dark(#000000,#000000);wallThickness=10;rotation=90;" parent="1" vertex="1">
          <mxGeometry x="675.25" y="242.75" width="111.5" height="10" as="geometry" />
        </mxCell>
        <mxCell id="O2O5Myb_N9L3xyK0cwro-2" value="" style="verticalLabelPosition=bottom;html=1;verticalAlign=top;align=center;shape=mxgraph.floorplan.wall;direction=south;wallThickness=10;rotation=-180;" parent="1" vertex="1">
          <mxGeometry x="721.5" y="303" width="19" height="21" as="geometry" />
        </mxCell>
        <mxCell id="O2O5Myb_N9L3xyK0cwro-3" value="" style="verticalLabelPosition=bottom;html=1;verticalAlign=top;align=center;shape=mxgraph.floorplan.wallCorner;fillColor=strokeColor;wallThickness=9;" parent="1" vertex="1">
          <mxGeometry x="683.5" y="324" width="52" height="80" as="geometry" />
        </mxCell>
        <mxCell id="O2O5Myb_N9L3xyK0cwro-5" value="" style="verticalLabelPosition=bottom;html=1;verticalAlign=top;align=center;shape=mxgraph.floorplan.wall;direction=south;wallThickness=4;rotation=90;" parent="1" vertex="1">
          <mxGeometry x="657.5" y="310" width="19" height="33" as="geometry" />
        </mxCell>
        <mxCell id="O2O5Myb_N9L3xyK0cwro-6" value="" style="verticalLabelPosition=bottom;html=1;verticalAlign=top;align=center;shape=mxgraph.floorplan.wall;direction=south;wallThickness=4;rotation=90;" parent="1" vertex="1">
          <mxGeometry x="582" y="300.5" width="19" height="52" as="geometry" />
        </mxCell>
        <mxCell id="O2O5Myb_N9L3xyK0cwro-7" value="" style="verticalLabelPosition=bottom;html=1;verticalAlign=top;align=center;shape=mxgraph.floorplan.wall;direction=south;wallThickness=3;rotation=-180;" parent="1" vertex="1">
          <mxGeometry x="586.5" y="329" width="20" height="66" as="geometry" />
        </mxCell>
        <mxCell id="O2O5Myb_N9L3xyK0cwro-8" value="" style="verticalLabelPosition=bottom;html=1;verticalAlign=top;align=center;shape=mxgraph.floorplan.wall;direction=south;wallThickness=3;rotation=90;fillOpacity=100;" parent="1" vertex="1">
          <mxGeometry x="598.5" y="383" width="19" height="26" as="geometry" />
        </mxCell>
        <mxCell id="O2O5Myb_N9L3xyK0cwro-9" value="" style="verticalLabelPosition=bottom;html=1;verticalAlign=top;align=center;shape=mxgraph.floorplan.wall;direction=south;wallThickness=3;rotation=90;fillOpacity=100;" parent="1" vertex="1">
          <mxGeometry x="657" y="379.5" width="19" height="33" as="geometry" />
        </mxCell>
        <mxCell id="O2O5Myb_N9L3xyK0cwro-10" value="" style="verticalLabelPosition=bottom;html=1;verticalAlign=top;align=center;shape=mxgraph.floorplan.window;fillColor=light-dark(#FFFFFF,#FFFFFF);strokeColor=light-dark(#000000,#000000);wallThickness=3;strokeWidth=0.3937;" parent="1" vertex="1">
          <mxGeometry x="621.5" y="391" width="28" height="10" as="geometry" />
        </mxCell>
        <mxCell id="O2O5Myb_N9L3xyK0cwro-11" value="" style="verticalLabelPosition=bottom;html=1;verticalAlign=top;align=center;shape=mxgraph.floorplan.wall;fillColor=strokeColor;direction=south;strokeColor=light-dark(#000000,#000000);wallThickness=10;rotation=-180;" parent="1" vertex="1">
          <mxGeometry x="511.5" y="324" width="19" height="80" as="geometry" />
        </mxCell>
        <mxCell id="O2O5Myb_N9L3xyK0cwro-12" value="" style="verticalLabelPosition=bottom;html=1;verticalAlign=top;align=center;shape=mxgraph.floorplan.wall;fillColor=strokeColor;wallThickness=9;" parent="1" vertex="1">
          <mxGeometry x="376.5" y="488" width="220" height="10" as="geometry" />
        </mxCell>
        <mxCell id="O2O5Myb_N9L3xyK0cwro-13" value="" style="verticalLabelPosition=bottom;html=1;verticalAlign=top;align=center;shape=mxgraph.floorplan.wall;fillColor=strokeColor;direction=south;strokeColor=light-dark(#000000,#000000);wallThickness=10;rotation=-180;" parent="1" vertex="1">
          <mxGeometry x="384.5" y="387" width="19" height="44" as="geometry" />
        </mxCell>
        <mxCell id="O2O5Myb_N9L3xyK0cwro-14" value="" style="verticalLabelPosition=bottom;html=1;verticalAlign=top;align=center;shape=mxgraph.floorplan.wall;direction=south;wallThickness=3;rotation=-180;" parent="1" vertex="1">
          <mxGeometry x="387.5" y="431" width="20" height="57" as="geometry" />
        </mxCell>
        <mxCell id="O2O5Myb_N9L3xyK0cwro-15" value="" style="verticalLabelPosition=bottom;html=1;verticalAlign=top;align=center;shape=mxgraph.floorplan.wall;direction=south;wallThickness=3;rotation=90;fillOpacity=100;" parent="1" vertex="1">
          <mxGeometry x="551" y="362" width="19" height="69" as="geometry" />
        </mxCell>
        <mxCell id="O2O5Myb_N9L3xyK0cwro-16" value="" style="verticalLabelPosition=bottom;html=1;verticalAlign=top;align=center;shape=mxgraph.floorplan.wall;direction=south;wallThickness=3;rotation=-180;" parent="1" vertex="1">
          <mxGeometry x="507.5" y="405" width="20" height="16" as="geometry" />
        </mxCell>
        <mxCell id="O2O5Myb_N9L3xyK0cwro-17" value="" style="verticalLabelPosition=bottom;html=1;verticalAlign=top;align=center;shape=mxgraph.floorplan.wall;direction=south;wallThickness=3;rotation=-180;" parent="1" vertex="1">
          <mxGeometry x="507.5" y="458" width="20" height="30" as="geometry" />
        </mxCell>
        <mxCell id="O2O5Myb_N9L3xyK0cwro-18" value="" style="verticalLabelPosition=bottom;html=1;verticalAlign=top;align=center;shape=mxgraph.floorplan.wall;direction=south;wallThickness=5;rotation=-180;" parent="1" vertex="1">
          <mxGeometry x="561.5" y="398" width="20" height="91" as="geometry" />
        </mxCell>
        <mxCell id="O2O5Myb_N9L3xyK0cwro-19" value="" style="verticalLabelPosition=bottom;html=1;verticalAlign=top;align=center;shape=mxgraph.floorplan.doorRight;aspect=fixed;rotation=-180;" parent="1" vertex="1">
          <mxGeometry x="505.5" y="242" width="37" height="39.31" as="geometry" />
        </mxCell>
        <mxCell id="O2O5Myb_N9L3xyK0cwro-20" value="" style="verticalLabelPosition=bottom;html=1;verticalAlign=top;align=center;shape=mxgraph.floorplan.doorLeft;aspect=fixed;rotation=-180;" parent="1" vertex="1">
          <mxGeometry x="460.79999999999995" y="242" width="36.7" height="39" as="geometry" />
        </mxCell>
        <mxCell id="O2O5Myb_N9L3xyK0cwro-21" value="" style="verticalLabelPosition=bottom;html=1;verticalAlign=top;align=center;shape=mxgraph.floorplan.wall;direction=south;wallThickness=4;rotation=90;snapToPoint=0;" parent="1" vertex="1">
          <mxGeometry x="492.5" y="275" width="19" height="8" as="geometry" />
        </mxCell>
        <mxCell id="O2O5Myb_N9L3xyK0cwro-22" value="" style="verticalLabelPosition=bottom;html=1;verticalAlign=top;align=center;shape=mxgraph.floorplan.doorLeft;aspect=fixed;rotation=-180;strokeWidth=0.7874;" parent="1" vertex="1">
          <mxGeometry x="338.4100000000001" y="387" width="33.88" height="36" as="geometry" />
        </mxCell>
        <mxCell id="O2O5Myb_N9L3xyK0cwro-23" value="" style="verticalLabelPosition=bottom;html=1;verticalAlign=top;align=center;shape=mxgraph.floorplan.doorRight;aspect=fixed;rotation=0;strokeWidth=0.7874;" parent="1" vertex="1">
          <mxGeometry x="338.5" y="425" width="33.71" height="35.81" as="geometry" />
        </mxCell>
        <mxCell id="O2O5Myb_N9L3xyK0cwro-24" value="" style="verticalLabelPosition=bottom;html=1;verticalAlign=top;align=center;shape=mxgraph.floorplan.wall;direction=south;wallThickness=12;rotation=-90;" parent="1" vertex="1">
          <mxGeometry x="370.5" y="416" width="20" height="16" as="geometry" />
        </mxCell>
        <mxCell id="O2O5Myb_N9L3xyK0cwro-25" value="" style="verticalLabelPosition=bottom;html=1;verticalAlign=top;align=center;shape=mxgraph.floorplan.doorRight;aspect=fixed;rotation=-180;strokeWidth=0.7874;" parent="1" vertex="1">
          <mxGeometry x="327.5" y="411" width="10.71" height="11.38" as="geometry" />
        </mxCell>
        <mxCell id="O2O5Myb_N9L3xyK0cwro-29" value="" style="verticalLabelPosition=bottom;html=1;verticalAlign=top;align=center;shape=mxgraph.floorplan.doorLeft;aspect=fixed;rotation=0;strokeWidth=0.7874;" parent="1" vertex="1">
          <mxGeometry x="327.5" y="425" width="10.35" height="11" as="geometry" />
        </mxCell>
        <mxCell id="O2O5Myb_N9L3xyK0cwro-30" value="" style="verticalLabelPosition=bottom;html=1;verticalAlign=top;align=center;shape=mxgraph.floorplan.wall;direction=south;wallThickness=12;rotation=-90;" parent="1" vertex="1">
          <mxGeometry x="312" y="418.5" width="20" height="11" as="geometry" />
        </mxCell>
        <mxCell id="O2O5Myb_N9L3xyK0cwro-33" value="" style="endArrow=none;dashed=1;html=1;rounded=0;curved=1;strokeWidth=0.7874;" parent="1" edge="1">
          <mxGeometry width="50" height="50" relative="1" as="geometry">
            <mxPoint x="321.5" y="417" as="sourcePoint" />
            <mxPoint x="352.5" y="351" as="targetPoint" />
            <Array as="points">
              <mxPoint x="323.5" y="369" />
            </Array>
          </mxGeometry>
        </mxCell>
        <mxCell id="O2O5Myb_N9L3xyK0cwro-35" value="" style="pointerEvents=1;verticalLabelPosition=bottom;shadow=0;dashed=0;align=center;html=1;verticalAlign=top;shape=mxgraph.electrical.electro-mechanical.relay_coil_2;strokeWidth=0.7874;" parent="1" vertex="1">
          <mxGeometry x="349.86" y="343" width="11" height="8" as="geometry" />
        </mxCell>
        <mxCell id="O2O5Myb_N9L3xyK0cwro-36" value="" style="pointerEvents=1;verticalLabelPosition=bottom;shadow=0;dashed=0;align=center;html=1;verticalAlign=top;shape=mxgraph.electrical.electro-mechanical.relay_coil_2;strokeWidth=0.7874;" parent="1" vertex="1">
          <mxGeometry x="313.5" y="244.75" width="11" height="8" as="geometry" />
        </mxCell>
        <mxCell id="O2O5Myb_N9L3xyK0cwro-37" value="" style="endArrow=none;dashed=1;html=1;rounded=0;curved=1;strokeWidth=0.7874;entryX=0.612;entryY=1.214;entryDx=0;entryDy=0;entryPerimeter=0;exitX=0.471;exitY=0.014;exitDx=0;exitDy=0;exitPerimeter=0;" parent="1" source="O2O5Myb_N9L3xyK0cwro-35" target="O2O5Myb_N9L3xyK0cwro-36" edge="1">
          <mxGeometry width="50" height="50" relative="1" as="geometry">
            <mxPoint x="362.5" y="351" as="sourcePoint" />
            <mxPoint x="391.66999999999996" y="291" as="targetPoint" />
            <Array as="points">
              <mxPoint x="352.5" y="331" />
              <mxPoint x="322.5" y="281" />
            </Array>
          </mxGeometry>
        </mxCell>
        <mxCell id="O2O5Myb_N9L3xyK0cwro-38" value="" style="rounded=0;whiteSpace=wrap;html=1;" parent="1" vertex="1">
          <mxGeometry x="380.5" y="388" width="8" height="27" as="geometry" />
        </mxCell>
        <mxCell id="O2O5Myb_N9L3xyK0cwro-39" value="" style="endArrow=none;dashed=1;html=1;rounded=0;curved=1;strokeWidth=0.7874;entryX=0.506;entryY=1.048;entryDx=0;entryDy=0;entryPerimeter=0;" parent="1" target="O2O5Myb_N9L3xyK0cwro-35" edge="1">
          <mxGeometry width="50" height="50" relative="1" as="geometry">
            <mxPoint x="378.5" y="398" as="sourcePoint" />
            <mxPoint x="411.66999999999996" y="371" as="targetPoint" />
            <Array as="points">
              <mxPoint x="338.5" y="400" />
            </Array>
          </mxGeometry>
        </mxCell>
        <mxCell id="O2O5Myb_N9L3xyK0cwro-40" value="" style="endArrow=none;dashed=1;html=1;rounded=0;curved=1;strokeWidth=0.7874;entryX=1.103;entryY=0.571;entryDx=0;entryDy=0;entryPerimeter=0;" parent="1" target="O2O5Myb_N9L3xyK0cwro-41" edge="1">
          <mxGeometry width="50" height="50" relative="1" as="geometry">
            <mxPoint x="378.5" y="401" as="sourcePoint" />
            <mxPoint x="292.5" y="381" as="targetPoint" />
            <Array as="points">
              <mxPoint x="352.5" y="401" />
              <mxPoint x="322.5" y="391" />
            </Array>
          </mxGeometry>
        </mxCell>
        <mxCell id="O2O5Myb_N9L3xyK0cwro-41" value="" style="pointerEvents=1;verticalLabelPosition=bottom;shadow=0;dashed=0;align=center;html=1;verticalAlign=top;shape=mxgraph.electrical.electro-mechanical.relay_coil_2;strokeWidth=0.7874;" parent="1" vertex="1">
          <mxGeometry x="281.5" y="371.5" width="11" height="8" as="geometry" />
        </mxCell>
        <mxCell id="O2O5Myb_N9L3xyK0cwro-42" value="&lt;font face=&quot;Verdana&quot; style=&quot;font-size: 4px;&quot;&gt;S1-1&lt;/font&gt;" style="text;html=1;align=center;verticalAlign=middle;whiteSpace=wrap;rounded=0;imageVerticalAlign=top;" parent="1" vertex="1">
          <mxGeometry x="305.5" y="430.5" width="12" height="7.5" as="geometry" />
        </mxCell>
        <mxCell id="O2O5Myb_N9L3xyK0cwro-43" value="&lt;font face=&quot;Verdana&quot; style=&quot;font-size: 4px;&quot;&gt;S1-2&lt;/font&gt;" style="text;html=1;align=center;verticalAlign=middle;whiteSpace=wrap;rounded=0;imageVerticalAlign=top;" parent="1" vertex="1">
          <mxGeometry x="315.5" y="430" width="13.25" height="7.5" as="geometry" />
        </mxCell>
        <mxCell id="O2O5Myb_N9L3xyK0cwro-45" value="&lt;font face=&quot;Verdana&quot; style=&quot;font-size: 4px;&quot;&gt;S1-1&lt;/font&gt;" style="text;html=1;align=center;verticalAlign=middle;whiteSpace=wrap;rounded=0;imageVerticalAlign=top;" parent="1" vertex="1">
          <mxGeometry x="355.5" y="335" width="15" height="7.5" as="geometry" />
        </mxCell>
        <mxCell id="O2O5Myb_N9L3xyK0cwro-46" value="&lt;font face=&quot;Verdana&quot; style=&quot;font-size: 4px;&quot;&gt;S1-2&lt;/font&gt;" style="text;html=1;align=center;verticalAlign=middle;whiteSpace=wrap;rounded=0;imageVerticalAlign=top;" parent="1" vertex="1">
          <mxGeometry x="322.5" y="239" width="12" height="7.5" as="geometry" />
        </mxCell>
        <mxCell id="O2O5Myb_N9L3xyK0cwro-49" value="" style="pointerEvents=1;verticalLabelPosition=bottom;shadow=0;dashed=0;align=center;html=1;verticalAlign=top;shape=mxgraph.electrical.electro-mechanical.relay_coil_2;strokeWidth=0.7874;" parent="1" vertex="1">
          <mxGeometry x="442.75" y="343" width="11" height="8" as="geometry" />
        </mxCell>
        <mxCell id="O2O5Myb_N9L3xyK0cwro-50" value="&lt;font face=&quot;Verdana&quot; style=&quot;font-size: 4px;&quot;&gt;S1-3&lt;/font&gt;" style="text;html=1;align=center;verticalAlign=middle;whiteSpace=wrap;rounded=0;imageVerticalAlign=top;" parent="1" vertex="1">
          <mxGeometry x="451.5" y="337" width="12.12" height="7.5" as="geometry" />
        </mxCell>
        <mxCell id="O2O5Myb_N9L3xyK0cwro-51" value="" style="endArrow=none;dashed=1;html=1;rounded=0;curved=1;strokeWidth=0.7874;entryX=0.935;entryY=0.789;entryDx=0;entryDy=0;entryPerimeter=0;exitX=0;exitY=0.5;exitDx=0;exitDy=0;exitPerimeter=0;" parent="1" source="O2O5Myb_N9L3xyK0cwro-49" target="O2O5Myb_N9L3xyK0cwro-36" edge="1">
          <mxGeometry width="50" height="50" relative="1" as="geometry">
            <mxPoint x="364.85" y="301" as="sourcePoint" />
            <mxPoint x="340.85" y="257" as="targetPoint" />
            <Array as="points">
              <mxPoint x="392.5" y="321" />
              <mxPoint x="352.5" y="291" />
            </Array>
          </mxGeometry>
        </mxCell>
        <mxCell id="O2O5Myb_N9L3xyK0cwro-52" value="" style="endArrow=none;dashed=1;html=1;rounded=0;curved=1;strokeWidth=0.7874;entryX=1;entryY=0.5;entryDx=0;entryDy=0;entryPerimeter=0;" parent="1" target="O2O5Myb_N9L3xyK0cwro-36" edge="1">
          <mxGeometry width="50" height="50" relative="1" as="geometry">
            <mxPoint x="388.5" y="285" as="sourcePoint" />
            <mxPoint x="322.5" y="247" as="targetPoint" />
            <Array as="points">
              <mxPoint x="353.5" y="273" />
            </Array>
          </mxGeometry>
        </mxCell>
        <mxCell id="O2O5Myb_N9L3xyK0cwro-53" value="" style="endArrow=none;html=1;rounded=0;entryX=0.42;entryY=0.409;entryDx=0;entryDy=0;entryPerimeter=0;strokeWidth=0.7874;opacity=30;" parent="1" target="vs-SE0_Q2x5BFznHqj6H-7" edge="1">
          <mxGeometry width="50" height="50" relative="1" as="geometry">
            <mxPoint x="268.5" y="324" as="sourcePoint" />
            <mxPoint x="268.50699999999995" y="233.99099999999999" as="targetPoint" />
          </mxGeometry>
        </mxCell>
        <mxCell id="O2O5Myb_N9L3xyK0cwro-54" value="" style="endArrow=none;html=1;rounded=0;opacity=30;" parent="1" edge="1">
          <mxGeometry width="50" height="50" relative="1" as="geometry">
            <mxPoint x="387.5" y="195" as="sourcePoint" />
            <mxPoint x="268.5" y="195" as="targetPoint" />
          </mxGeometry>
        </mxCell>
        <mxCell id="O2O5Myb_N9L3xyK0cwro-55" value="" style="endArrow=none;html=1;rounded=0;opacity=30;" parent="1" edge="1">
          <mxGeometry width="50" height="50" relative="1" as="geometry">
            <mxPoint x="268.5" y="313" as="sourcePoint" />
            <mxPoint x="314.5" y="313" as="targetPoint" />
          </mxGeometry>
        </mxCell>
        <mxCell id="O2O5Myb_N9L3xyK0cwro-56" value="" style="endArrow=none;html=1;rounded=0;opacity=30;" parent="1" edge="1">
          <mxGeometry width="50" height="50" relative="1" as="geometry">
            <mxPoint x="325.5" y="418" as="sourcePoint" />
            <mxPoint x="325.5" y="324" as="targetPoint" />
          </mxGeometry>
        </mxCell>
        <mxCell id="O2O5Myb_N9L3xyK0cwro-57" value="" style="endArrow=none;html=1;rounded=0;curved=1;opacity=30;" parent="1" edge="1">
          <mxGeometry width="50" height="50" relative="1" as="geometry">
            <mxPoint x="314.5" y="313" as="sourcePoint" />
            <mxPoint x="325.5" y="324" as="targetPoint" />
            <Array as="points">
              <mxPoint x="325.5" y="313" />
            </Array>
          </mxGeometry>
        </mxCell>
        <mxCell id="w0VkKJE6E9omO7ZpxIO1-3" value="&lt;div style=&quot;line-height: 20%;&quot;&gt;&lt;font face=&quot;Verdana&quot; style=&quot;font-size: 4px; line-height: 20%;&quot;&gt;LIVING/&lt;/font&gt;&lt;div&gt;&lt;font face=&quot;Verdana&quot; style=&quot;font-size: 4px; line-height: 20%;&quot;&gt;DINING&lt;/font&gt;&lt;/div&gt;&lt;/div&gt;" style="text;html=1;align=center;verticalAlign=middle;whiteSpace=wrap;rounded=0;imageVerticalAlign=top;" parent="1" vertex="1">
          <mxGeometry x="297.85" y="217.5" width="40" height="10" as="geometry" />
        </mxCell>
        <mxCell id="w0VkKJE6E9omO7ZpxIO1-4" value="&lt;font face=&quot;Verdana&quot; style=&quot;font-size: 4px;&quot;&gt;S1-1&lt;/font&gt;" style="text;html=1;align=center;verticalAlign=middle;whiteSpace=wrap;rounded=0;imageVerticalAlign=top;" parent="1" vertex="1">
          <mxGeometry x="379.5" y="282" width="16.5" height="7.5" as="geometry" />
        </mxCell>
        <mxCell id="w0VkKJE6E9omO7ZpxIO1-5" value="&lt;font face=&quot;Verdana&quot;&gt;S1-2&lt;/font&gt;" style="text;html=1;align=center;verticalAlign=middle;whiteSpace=wrap;rounded=0;imageVerticalAlign=top;fontSize=4;" parent="1" vertex="1">
          <mxGeometry x="392.5" y="285" width="12" height="7.5" as="geometry" />
        </mxCell>
        <mxCell id="w0VkKJE6E9omO7ZpxIO1-7" value="&lt;font face=&quot;Verdana&quot; style=&quot;font-size: 4px;&quot;&gt;S1-3&lt;/font&gt;" style="text;html=1;align=center;verticalAlign=middle;whiteSpace=wrap;rounded=0;imageVerticalAlign=top;" parent="1" vertex="1">
          <mxGeometry x="402.5" y="282" width="13" height="7.5" as="geometry" />
        </mxCell>
        <mxCell id="w0VkKJE6E9omO7ZpxIO1-8" value="" style="endArrow=none;dashed=1;html=1;rounded=0;curved=1;strokeWidth=0.7874;exitX=0.54;exitY=-0.262;exitDx=0;exitDy=0;exitPerimeter=0;" parent="1" source="O2O5Myb_N9L3xyK0cwro-49" edge="1">
          <mxGeometry width="50" height="50" relative="1" as="geometry">
            <mxPoint x="485.5" y="331" as="sourcePoint" />
            <mxPoint x="414.5" y="290" as="targetPoint" />
            <Array as="points">
              <mxPoint x="440.5" y="316" />
            </Array>
          </mxGeometry>
        </mxCell>
        <mxCell id="w0VkKJE6E9omO7ZpxIO1-10" value="&lt;div style=&quot;line-height: 20%;&quot;&gt;&lt;font face=&quot;Verdana&quot;&gt;&lt;span style=&quot;font-size: 4px;&quot;&gt;STOREROOM&lt;/span&gt;&lt;/font&gt;&lt;/div&gt;" style="text;html=1;align=center;verticalAlign=middle;whiteSpace=wrap;rounded=0;imageVerticalAlign=top;" parent="1" vertex="1">
          <mxGeometry x="266.25" y="357" width="40" height="10" as="geometry" />
        </mxCell>
        <mxCell id="w0VkKJE6E9omO7ZpxIO1-12" value="" style="endArrow=none;dashed=1;html=1;rounded=0;entryX=0.48;entryY=1.229;entryDx=0;entryDy=0;entryPerimeter=0;curved=1;strokeWidth=0.7874;" parent="1" target="O2O5Myb_N9L3xyK0cwro-41" edge="1">
          <mxGeometry width="50" height="50" relative="1" as="geometry">
            <mxPoint x="308.5" y="393" as="sourcePoint" />
            <mxPoint x="322.5" y="371" as="targetPoint" />
            <Array as="points">
              <mxPoint x="295.5" y="392" />
            </Array>
          </mxGeometry>
        </mxCell>
        <mxCell id="w0VkKJE6E9omO7ZpxIO1-13" value="&lt;font face=&quot;Verdana&quot;&gt;&lt;span&gt;SS1&lt;/span&gt;&lt;/font&gt;" style="text;html=1;align=center;verticalAlign=middle;whiteSpace=wrap;rounded=0;imageVerticalAlign=top;fontSize=4;" parent="1" vertex="1">
          <mxGeometry x="274.5" y="376" width="8" height="7.5" as="geometry" />
        </mxCell>
        <mxCell id="w0VkKJE6E9omO7ZpxIO1-14" value="&lt;font style=&quot;font-size: 4px;&quot; face=&quot;Verdana&quot;&gt;SS1&lt;/font&gt;" style="text;html=1;align=center;verticalAlign=middle;whiteSpace=wrap;rounded=0;imageVerticalAlign=top;" parent="1" vertex="1">
          <mxGeometry x="298.5" y="390" width="10.25" height="7" as="geometry" />
        </mxCell>
        <mxCell id="w0VkKJE6E9omO7ZpxIO1-17" value="" style="endArrow=none;dashed=1;html=1;rounded=0;curved=1;strokeWidth=0.3937;entryX=1.067;entryY=0.291;entryDx=0;entryDy=0;entryPerimeter=0;" parent="1" target="GYeJIsuWpDAbkdzLy3dR-1" edge="1">
          <mxGeometry width="50" height="50" relative="1" as="geometry">
            <mxPoint x="378.5" y="390" as="sourcePoint" />
            <mxPoint x="574.5" y="307" as="targetPoint" />
            <Array as="points">
              <mxPoint x="372.5" y="391" />
              <mxPoint x="372.5" y="353" />
              <mxPoint x="372.5" y="341" />
              <mxPoint x="374.5" y="327" />
              <mxPoint x="442.5" y="301" />
              <mxPoint x="552.5" y="291" />
              <mxPoint x="556.5" y="298" />
            </Array>
          </mxGeometry>
        </mxCell>
        <mxCell id="w0VkKJE6E9omO7ZpxIO1-18" value="&lt;div style=&quot;line-height: 20%;&quot;&gt;&lt;font face=&quot;Verdana&quot;&gt;&lt;span style=&quot;font-size: 4px;&quot;&gt;KITCHEN&lt;/span&gt;&lt;/font&gt;&lt;/div&gt;" style="text;html=1;align=center;verticalAlign=middle;whiteSpace=wrap;rounded=0;imageVerticalAlign=top;" parent="1" vertex="1">
          <mxGeometry x="442.75" y="428" width="40" height="10" as="geometry" />
        </mxCell>
        <mxCell id="w0VkKJE6E9omO7ZpxIO1-23" value="" style="endArrow=none;dashed=1;html=1;rounded=0;curved=1;strokeWidth=0.3937;entryX=1;entryY=0;entryDx=0;entryDy=0;" parent="1" target="GYeJIsuWpDAbkdzLy3dR-11" edge="1">
          <mxGeometry width="50" height="50" relative="1" as="geometry">
            <mxPoint x="378.5" y="391.5" as="sourcePoint" />
            <mxPoint x="592.5" y="311" as="targetPoint" />
            <Array as="points">
              <mxPoint x="370.5" y="391.5" />
              <mxPoint x="371.5" y="351.5" />
              <mxPoint x="371.5" y="339.5" />
              <mxPoint x="373.5" y="325.5" />
              <mxPoint x="452.5" y="295.5" />
              <mxPoint x="586.5" y="289" />
              <mxPoint x="599.5" y="302.5" />
            </Array>
          </mxGeometry>
        </mxCell>
        <mxCell id="w0VkKJE6E9omO7ZpxIO1-25" value="*TO BE CONFIRMED&lt;div&gt;SWITCH POINT FOR NICHE CABINET&lt;/div&gt;" style="text;html=1;align=left;verticalAlign=middle;rounded=0;fontSize=7;whiteSpace=wrap;labelPosition=center;verticalLabelPosition=middle;" parent="1" vertex="1">
          <mxGeometry x="150" y="325" width="74.5" height="30" as="geometry" />
        </mxCell>
        <mxCell id="w0VkKJE6E9omO7ZpxIO1-26" value="" style="endArrow=classic;html=1;rounded=0;fontSize=5;strokeWidth=0.3937;" parent="1" edge="1">
          <mxGeometry width="50" height="50" relative="1" as="geometry">
            <mxPoint x="225.5" y="338" as="sourcePoint" />
            <mxPoint x="243.5" y="322" as="targetPoint" />
          </mxGeometry>
        </mxCell>
        <mxCell id="w0VkKJE6E9omO7ZpxIO1-27" value="" style="pointerEvents=1;verticalLabelPosition=bottom;shadow=0;dashed=0;align=center;html=1;verticalAlign=top;shape=mxgraph.electrical.electro-mechanical.relay_coil_2;strokeWidth=0.7874;" parent="1" vertex="1">
          <mxGeometry x="453.75" y="411" width="11" height="8" as="geometry" />
        </mxCell>
        <mxCell id="w0VkKJE6E9omO7ZpxIO1-28" value="&lt;font face=&quot;Verdana&quot; style=&quot;font-size: 4px;&quot;&gt;S2-1&lt;/font&gt;" style="text;html=1;align=center;verticalAlign=middle;whiteSpace=wrap;rounded=0;imageVerticalAlign=top;" parent="1" vertex="1">
          <mxGeometry x="464.75" y="405.25" width="12.12" height="7.5" as="geometry" />
        </mxCell>
        <mxCell id="w0VkKJE6E9omO7ZpxIO1-29" value="BLOCK 562C CHAMPIONS WAY SINGAPORE 733562&lt;div&gt;&lt;b&gt;#05-160&lt;/b&gt;&lt;/div&gt;" style="text;html=1;align=left;verticalAlign=middle;whiteSpace=wrap;rounded=0;" parent="1" vertex="1">
          <mxGeometry x="40" y="990" width="400" height="30" as="geometry" />
        </mxCell>
        <mxCell id="w0VkKJE6E9omO7ZpxIO1-30" value="&lt;font face=&quot;Verdana&quot; style=&quot;font-size: 4px;&quot;&gt;S2-2&lt;/font&gt;" style="text;html=1;align=center;verticalAlign=middle;whiteSpace=wrap;rounded=0;imageVerticalAlign=top;" parent="1" vertex="1">
          <mxGeometry x="527.5" y="421" width="12.12" height="7.5" as="geometry" />
        </mxCell>
        <mxCell id="w0VkKJE6E9omO7ZpxIO1-31" value="&lt;div style=&quot;line-height: 20%;&quot;&gt;&lt;font face=&quot;Verdana&quot;&gt;&lt;span style=&quot;font-size: 4px;&quot;&gt;SERVICE YARD&lt;/span&gt;&lt;/font&gt;&lt;/div&gt;" style="text;html=1;align=center;verticalAlign=middle;whiteSpace=wrap;rounded=0;imageVerticalAlign=top;" parent="1" vertex="1">
          <mxGeometry x="522.5" y="461" width="40" height="10" as="geometry" />
        </mxCell>
        <mxCell id="w0VkKJE6E9omO7ZpxIO1-32" value="" style="pointerEvents=1;verticalLabelPosition=bottom;shadow=0;dashed=0;align=center;html=1;verticalAlign=top;shape=mxgraph.electrical.electro-mechanical.relay_coil_2;strokeWidth=0.7874;" parent="1" vertex="1">
          <mxGeometry x="539.62" y="432" width="11" height="8" as="geometry" />
        </mxCell>
        <mxCell id="w0VkKJE6E9omO7ZpxIO1-33" value="" style="endArrow=none;dashed=1;html=1;rounded=0;strokeWidth=0.7874;curved=1;" parent="1" edge="1">
          <mxGeometry width="50" height="50" relative="1" as="geometry">
            <mxPoint x="378.5" y="388" as="sourcePoint" />
            <mxPoint x="459.5" y="410" as="targetPoint" />
            <Array as="points">
              <mxPoint x="374.5" y="369" />
              <mxPoint x="422.5" y="361" />
              <mxPoint x="452.5" y="381" />
            </Array>
          </mxGeometry>
        </mxCell>
        <mxCell id="w0VkKJE6E9omO7ZpxIO1-35" value="" style="endArrow=none;dashed=1;html=1;rounded=0;strokeWidth=0.7874;curved=1;" parent="1" edge="1">
          <mxGeometry width="50" height="50" relative="1" as="geometry">
            <mxPoint x="401.5" y="396" as="sourcePoint" />
            <mxPoint x="453.5" y="415" as="targetPoint" />
            <Array as="points">
              <mxPoint x="429.5" y="399" />
            </Array>
          </mxGeometry>
        </mxCell>
        <mxCell id="w0VkKJE6E9omO7ZpxIO1-36" value="" style="endArrow=none;dashed=1;html=1;rounded=0;curved=1;strokeWidth=0.7874;" parent="1" edge="1">
          <mxGeometry width="50" height="50" relative="1" as="geometry">
            <mxPoint x="323.5" y="417" as="sourcePoint" />
            <mxPoint x="400.5" y="404" as="targetPoint" />
            <Array as="points">
              <mxPoint x="325.5" y="369" />
              <mxPoint x="412.5" y="371" />
              <mxPoint x="422.5" y="401" />
            </Array>
          </mxGeometry>
        </mxCell>
        <mxCell id="w0VkKJE6E9omO7ZpxIO1-39" value="" style="endArrow=none;html=1;rounded=0;opacity=30;" parent="1" edge="1">
          <mxGeometry width="50" height="50" relative="1" as="geometry">
            <mxPoint x="424.5" y="467" as="sourcePoint" />
            <mxPoint x="515.5" y="467" as="targetPoint" />
          </mxGeometry>
        </mxCell>
        <mxCell id="w0VkKJE6E9omO7ZpxIO1-40" value="" style="endArrow=none;html=1;rounded=0;opacity=30;" parent="1" edge="1">
          <mxGeometry width="50" height="50" relative="1" as="geometry">
            <mxPoint x="399.5" y="393" as="sourcePoint" />
            <mxPoint x="424.5" y="393" as="targetPoint" />
          </mxGeometry>
        </mxCell>
        <mxCell id="w0VkKJE6E9omO7ZpxIO1-41" value="" style="endArrow=none;html=1;rounded=0;opacity=30;" parent="1" edge="1">
          <mxGeometry width="50" height="50" relative="1" as="geometry">
            <mxPoint x="424.5" y="393" as="sourcePoint" />
            <mxPoint x="424.5" y="467" as="targetPoint" />
          </mxGeometry>
        </mxCell>
        <mxCell id="w0VkKJE6E9omO7ZpxIO1-42" value="" style="endArrow=none;dashed=1;html=1;rounded=0;strokeWidth=0.7874;curved=1;" parent="1" edge="1">
          <mxGeometry width="50" height="50" relative="1" as="geometry">
            <mxPoint x="463.62" y="415" as="sourcePoint" />
            <mxPoint x="539.5" y="436" as="targetPoint" />
            <Array as="points">
              <mxPoint x="502.5" y="431" />
            </Array>
          </mxGeometry>
        </mxCell>
        <mxCell id="w0VkKJE6E9omO7ZpxIO1-43" value="" style="endArrow=none;dashed=1;html=1;rounded=0;strokeWidth=0.7874;curved=1;" parent="1" source="GYeJIsuWpDAbkdzLy3dR-2" edge="1">
          <mxGeometry width="50" height="50" relative="1" as="geometry">
            <mxPoint x="568.5" y="320" as="sourcePoint" />
            <mxPoint x="540.5" y="434" as="targetPoint" />
            <Array as="points">
              <mxPoint x="472.5" y="301" />
              <mxPoint x="472.5" y="361" />
              <mxPoint x="472.5" y="421" />
            </Array>
          </mxGeometry>
        </mxCell>
        <mxCell id="w0VkKJE6E9omO7ZpxIO1-44" value="4R-1(H), 4R-1A(H)&lt;div&gt;&lt;b&gt;CONCEALED CONDUITS IN CEILING SLAB&lt;/b&gt;&lt;/div&gt;&lt;div&gt;(LIGHTINGS, HEATER &amp;amp; DOOR BELL POINT)&lt;/div&gt;" style="text;html=1;align=left;verticalAlign=middle;whiteSpace=wrap;rounded=0;fontSize=7;" parent="1" vertex="1">
          <mxGeometry x="395.5" y="518" width="152" height="30" as="geometry" />
        </mxCell>
        <mxCell id="GYeJIsuWpDAbkdzLy3dR-1" value="&lt;div style=&quot;line-height: 20%;&quot;&gt;&lt;font face=&quot;Verdana&quot; style=&quot;font-size: 4px; line-height: 20%;&quot;&gt;S2-4&lt;/font&gt;&lt;div&gt;&lt;font face=&quot;Verdana&quot;&gt;&lt;span style=&quot;font-size: 4px; line-height: 20%;&quot;&gt;S2-5&lt;/span&gt;&lt;/font&gt;&lt;/div&gt;&lt;div&gt;&lt;font face=&quot;Verdana&quot;&gt;&lt;span style=&quot;font-size: 4px; line-height: 20%;&quot;&gt;S2-6&lt;/span&gt;&lt;/font&gt;&lt;/div&gt;&lt;/div&gt;" style="text;html=1;align=center;verticalAlign=middle;whiteSpace=wrap;rounded=0;imageVerticalAlign=top;opacity=40;rotation=-90;" parent="1" vertex="1">
          <mxGeometry x="557.5" y="309.19" width="12.5" height="18.31" as="geometry" />
        </mxCell>
        <mxCell id="GYeJIsuWpDAbkdzLy3dR-2" value="" style="pointerEvents=1;verticalLabelPosition=bottom;shadow=0;dashed=0;align=center;html=1;verticalAlign=top;shape=mxgraph.electrical.electro-mechanical.relay_coil_2;strokeWidth=0.7874;" parent="1" vertex="1">
          <mxGeometry x="539.62" y="299.69" width="11" height="8" as="geometry" />
        </mxCell>
        <mxCell id="GYeJIsuWpDAbkdzLy3dR-4" value="" style="pointerEvents=1;verticalLabelPosition=bottom;shadow=0;dashed=0;align=center;html=1;verticalAlign=top;shape=mxgraph.electrical.electro-mechanical.relay_coil_2;strokeWidth=0.7874;" parent="1" vertex="1">
          <mxGeometry x="546.5" y="347" width="11" height="8" as="geometry" />
        </mxCell>
        <mxCell id="GYeJIsuWpDAbkdzLy3dR-5" value="" style="endArrow=none;html=1;rounded=0;opacity=30;" parent="1" edge="1">
          <mxGeometry width="50" height="50" relative="1" as="geometry">
            <mxPoint x="526" y="378" as="sourcePoint" />
            <mxPoint x="577.5" y="378" as="targetPoint" />
          </mxGeometry>
        </mxCell>
        <mxCell id="GYeJIsuWpDAbkdzLy3dR-6" value="" style="endArrow=none;html=1;rounded=0;opacity=30;" parent="1" edge="1">
          <mxGeometry width="50" height="50" relative="1" as="geometry">
            <mxPoint x="577.5" y="378" as="sourcePoint" />
            <mxPoint x="577.5" y="329" as="targetPoint" />
          </mxGeometry>
        </mxCell>
        <mxCell id="GYeJIsuWpDAbkdzLy3dR-7" value="" style="pointerEvents=1;verticalLabelPosition=bottom;shadow=0;dashed=0;align=center;html=1;verticalAlign=top;shape=mxgraph.electrical.electro-mechanical.relay_coil_2;strokeWidth=0.7874;" parent="1" vertex="1">
          <mxGeometry x="531.5" y="382" width="11" height="8" as="geometry" />
        </mxCell>
        <mxCell id="GYeJIsuWpDAbkdzLy3dR-8" value="" style="endArrow=none;dashed=1;html=1;rounded=0;curved=1;strokeWidth=0.7874;exitX=0.563;exitY=0.059;exitDx=0;exitDy=0;exitPerimeter=0;" parent="1" source="GYeJIsuWpDAbkdzLy3dR-4" edge="1">
          <mxGeometry width="50" height="50" relative="1" as="geometry">
            <mxPoint x="581.5" y="358.69000000000005" as="sourcePoint" />
            <mxPoint x="547.5" y="307.69" as="targetPoint" />
            <Array as="points">
              <mxPoint x="552.5" y="321" />
            </Array>
          </mxGeometry>
        </mxCell>
        <mxCell id="GYeJIsuWpDAbkdzLy3dR-9" value="" style="endArrow=none;dashed=1;html=1;rounded=0;curved=1;strokeWidth=0.7874;entryX=0;entryY=0.5;entryDx=0;entryDy=0;entryPerimeter=0;" parent="1" target="GYeJIsuWpDAbkdzLy3dR-4" edge="1">
          <mxGeometry width="50" height="50" relative="1" as="geometry">
            <mxPoint x="537.5" y="382" as="sourcePoint" />
            <mxPoint x="547.5" y="347" as="targetPoint" />
            <Array as="points">
              <mxPoint x="535.5" y="351" />
            </Array>
          </mxGeometry>
        </mxCell>
        <mxCell id="GYeJIsuWpDAbkdzLy3dR-10" value="&lt;div style=&quot;line-height: 10%;&quot;&gt;&lt;div&gt;&lt;font face=&quot;Verdana&quot;&gt;&lt;span style=&quot;font-size: 4px; line-height: 10%;&quot;&gt;S1-7&lt;/span&gt;&lt;/font&gt;&lt;/div&gt;&lt;div&gt;&lt;font face=&quot;Verdana&quot;&gt;&lt;span style=&quot;font-size: 4px; line-height: 10%;&quot;&gt;S1-6&lt;/span&gt;&lt;/font&gt;&lt;/div&gt;&lt;/div&gt;" style="text;html=1;align=center;verticalAlign=middle;whiteSpace=wrap;rounded=0;imageVerticalAlign=top;opacity=40;rotation=-90;" parent="1" vertex="1">
          <mxGeometry x="578.5" y="312.45" width="12.5" height="11.8" as="geometry" />
        </mxCell>
        <mxCell id="GYeJIsuWpDAbkdzLy3dR-11" value="&lt;div style=&quot;line-height: 10%;&quot;&gt;&lt;font face=&quot;Verdana&quot;&gt;&lt;span style=&quot;font-size: 4px;&quot;&gt;H1&lt;/span&gt;&lt;/font&gt;&lt;/div&gt;&lt;div style=&quot;line-height: 10%;&quot;&gt;&lt;font face=&quot;Verdana&quot;&gt;&lt;span style=&quot;font-size: 4px;&quot;&gt;S1-9&lt;/span&gt;&lt;/font&gt;&lt;/div&gt;&lt;div style=&quot;line-height: 10%;&quot;&gt;&lt;font face=&quot;Verdana&quot;&gt;&lt;span style=&quot;font-size: 4px;&quot;&gt;S1-8&lt;/span&gt;&lt;/font&gt;&lt;/div&gt;" style="text;html=1;align=left;verticalAlign=middle;whiteSpace=wrap;rounded=0;imageVerticalAlign=top;opacity=40;rotation=-90;" parent="1" vertex="1">
          <mxGeometry x="601.1500000000001" y="313.3499999999999" width="12.5" height="11.8" as="geometry" />
        </mxCell>
        <mxCell id="GYeJIsuWpDAbkdzLy3dR-12" value="&lt;font face=&quot;Verdana&quot; style=&quot;font-size: 4px;&quot;&gt;S2-4&lt;/font&gt;" style="text;html=1;align=center;verticalAlign=middle;whiteSpace=wrap;rounded=0;imageVerticalAlign=top;" parent="1" vertex="1">
          <mxGeometry x="555.56" y="347.5" width="12.12" height="7.5" as="geometry" />
        </mxCell>
        <mxCell id="GYeJIsuWpDAbkdzLy3dR-13" value="&lt;font face=&quot;Verdana&quot; style=&quot;font-size: 4px;&quot;&gt;S2-5&lt;/font&gt;" style="text;html=1;align=center;verticalAlign=middle;whiteSpace=wrap;rounded=0;imageVerticalAlign=top;" parent="1" vertex="1">
          <mxGeometry x="543.44" y="378" width="12.12" height="7.5" as="geometry" />
        </mxCell>
        <mxCell id="GYeJIsuWpDAbkdzLy3dR-15" value="" style="endArrow=none;dashed=1;html=1;rounded=0;curved=1;strokeWidth=0.7874;exitX=1;exitY=0.5;exitDx=0;exitDy=0;exitPerimeter=0;entryX=0.008;entryY=0.346;entryDx=0;entryDy=0;entryPerimeter=0;" parent="1" source="GYeJIsuWpDAbkdzLy3dR-4" target="GYeJIsuWpDAbkdzLy3dR-1" edge="1">
          <mxGeometry width="50" height="50" relative="1" as="geometry">
            <mxPoint x="567.5" y="360.4599999999999" as="sourcePoint" />
            <mxPoint x="561.5" y="325.15" as="targetPoint" />
            <Array as="points">
              <mxPoint x="566.5" y="338.4599999999999" />
            </Array>
          </mxGeometry>
        </mxCell>
        <mxCell id="GYeJIsuWpDAbkdzLy3dR-18" value="&lt;font style=&quot;font-size: 4px;&quot;&gt;LED - Cove L-box&lt;/font&gt;" style="text;html=1;align=center;verticalAlign=middle;whiteSpace=wrap;rounded=0;rotation=-90;" parent="1" vertex="1">
          <mxGeometry x="249.5" y="281" width="41" height="7" as="geometry" />
        </mxCell>
        <mxCell id="GYeJIsuWpDAbkdzLy3dR-19" value="&lt;font face=&quot;Verdana&quot; style=&quot;font-size: 4px;&quot;&gt;S2-3&lt;/font&gt;" style="text;html=1;align=center;verticalAlign=middle;whiteSpace=wrap;rounded=0;imageVerticalAlign=top;" parent="1" vertex="1">
          <mxGeometry x="530.94" y="293.5" width="12.12" height="7.5" as="geometry" />
        </mxCell>
        <mxCell id="GYeJIsuWpDAbkdzLy3dR-20" value="" style="pointerEvents=1;verticalLabelPosition=bottom;shadow=0;dashed=0;align=center;html=1;verticalAlign=top;shape=mxgraph.electrical.electro-mechanical.relay_coil_2;strokeWidth=0.7874;" parent="1" vertex="1">
          <mxGeometry x="672.5" y="257.65" width="11" height="8" as="geometry" />
        </mxCell>
        <mxCell id="GYeJIsuWpDAbkdzLy3dR-21" value="&lt;font face=&quot;Verdana&quot; style=&quot;font-size: 4px;&quot;&gt;S1-7&lt;/font&gt;" style="text;html=1;align=center;verticalAlign=middle;whiteSpace=wrap;rounded=0;imageVerticalAlign=top;" parent="1" vertex="1">
          <mxGeometry x="683.5" y="246.5" width="12.12" height="7.5" as="geometry" />
        </mxCell>
        <mxCell id="GYeJIsuWpDAbkdzLy3dR-22" value="" style="endArrow=none;dashed=1;html=1;rounded=0;curved=1;strokeWidth=0.7874;exitX=1;exitY=0.25;exitDx=0;exitDy=0;entryX=-0.196;entryY=0.626;entryDx=0;entryDy=0;entryPerimeter=0;" parent="1" source="GYeJIsuWpDAbkdzLy3dR-10" target="GYeJIsuWpDAbkdzLy3dR-20" edge="1">
          <mxGeometry width="50" height="50" relative="1" as="geometry">
            <mxPoint x="648.5" y="316.30999999999995" as="sourcePoint" />
            <mxPoint x="642.5" y="281" as="targetPoint" />
            <Array as="points">
              <mxPoint x="579.5" y="291" />
              <mxPoint x="631.5" y="283" />
            </Array>
          </mxGeometry>
        </mxCell>
        <mxCell id="GYeJIsuWpDAbkdzLy3dR-23" value="" style="endArrow=none;html=1;rounded=0;opacity=30;" parent="1" edge="1">
          <mxGeometry width="50" height="50" relative="1" as="geometry">
            <mxPoint x="617.5" y="378" as="sourcePoint" />
            <mxPoint x="617.5" y="329" as="targetPoint" />
          </mxGeometry>
        </mxCell>
        <mxCell id="GYeJIsuWpDAbkdzLy3dR-24" value="" style="endArrow=none;html=1;rounded=0;opacity=30;" parent="1" edge="1">
          <mxGeometry width="50" height="50" relative="1" as="geometry">
            <mxPoint x="617.5" y="378" as="sourcePoint" />
            <mxPoint x="682.5" y="378" as="targetPoint" />
          </mxGeometry>
        </mxCell>
        <mxCell id="GYeJIsuWpDAbkdzLy3dR-25" value="" style="pointerEvents=1;verticalLabelPosition=bottom;shadow=0;dashed=0;align=center;html=1;verticalAlign=top;shape=mxgraph.electrical.electro-mechanical.relay_coil_2;strokeWidth=0.7874;" parent="1" vertex="1">
          <mxGeometry x="646" y="347" width="11" height="8" as="geometry" />
        </mxCell>
        <mxCell id="GYeJIsuWpDAbkdzLy3dR-26" value="" style="endArrow=none;dashed=1;html=1;rounded=0;curved=1;strokeWidth=0.7874;" parent="1" edge="1">
          <mxGeometry width="50" height="50" relative="1" as="geometry">
            <mxPoint x="656.5" y="351" as="sourcePoint" />
            <mxPoint x="677.5" y="266" as="targetPoint" />
            <Array as="points">
              <mxPoint x="671.5" y="315.4599999999999" />
            </Array>
          </mxGeometry>
        </mxCell>
        <mxCell id="GYeJIsuWpDAbkdzLy3dR-27" value="" style="pointerEvents=1;verticalLabelPosition=bottom;shadow=0;dashed=0;align=center;html=1;verticalAlign=top;shape=mxgraph.electrical.electro-mechanical.relay_coil_2;strokeWidth=0.7874;" parent="1" vertex="1">
          <mxGeometry x="602.5" y="333" width="11" height="8" as="geometry" />
        </mxCell>
        <mxCell id="GYeJIsuWpDAbkdzLy3dR-28" value="" style="endArrow=none;dashed=1;html=1;rounded=0;curved=1;strokeWidth=0.7874;" parent="1" edge="1">
          <mxGeometry width="50" height="50" relative="1" as="geometry">
            <mxPoint x="645.5" y="351" as="sourcePoint" />
            <mxPoint x="613.5" y="337" as="targetPoint" />
            <Array as="points">
              <mxPoint x="626.5" y="348" />
            </Array>
          </mxGeometry>
        </mxCell>
        <mxCell id="GYeJIsuWpDAbkdzLy3dR-29" value="&lt;font face=&quot;Verdana&quot; style=&quot;font-size: 4px;&quot;&gt;S1-9&lt;/font&gt;" style="text;html=1;align=center;verticalAlign=middle;whiteSpace=wrap;rounded=0;imageVerticalAlign=top;" parent="1" vertex="1">
          <mxGeometry x="603.5" y="338" width="12.12" height="7.5" as="geometry" />
        </mxCell>
        <mxCell id="GYeJIsuWpDAbkdzLy3dR-31" value="" style="endArrow=none;dashed=1;html=1;rounded=0;curved=1;strokeWidth=0.7874;exitX=0.789;exitY=1.409;exitDx=0;exitDy=0;exitPerimeter=0;" parent="1" edge="1">
          <mxGeometry width="50" height="50" relative="1" as="geometry">
            <mxPoint x="651.06268" y="346.5675" as="sourcePoint" />
            <mxPoint x="607.5" y="325" as="targetPoint" />
            <Array as="points">
              <mxPoint x="635.5" y="336" />
            </Array>
          </mxGeometry>
        </mxCell>
        <mxCell id="GYeJIsuWpDAbkdzLy3dR-33" value="&lt;font face=&quot;Verdana&quot; style=&quot;font-size: 4px;&quot;&gt;S1-8&lt;/font&gt;" style="text;html=1;align=center;verticalAlign=middle;whiteSpace=wrap;rounded=0;imageVerticalAlign=top;" parent="1" vertex="1">
          <mxGeometry x="653.5" y="351" width="12.12" height="7.5" as="geometry" />
        </mxCell>
        <mxCell id="Khh3236WJ3ztNvCZFQgd-4" value="" style="pointerEvents=1;verticalLabelPosition=bottom;shadow=0;dashed=0;align=center;html=1;verticalAlign=top;shape=mxgraph.electrical.electro-mechanical.relay_coil_2;strokeWidth=0.7874;" vertex="1" parent="1">
          <mxGeometry x="672.5" y="187" width="11" height="8" as="geometry" />
        </mxCell>
        <mxCell id="Khh3236WJ3ztNvCZFQgd-5" value="&lt;font face=&quot;Verdana&quot; style=&quot;font-size: 4px;&quot;&gt;S1-6&lt;/font&gt;" style="text;html=1;align=center;verticalAlign=middle;whiteSpace=wrap;rounded=0;imageVerticalAlign=top;" vertex="1" parent="1">
          <mxGeometry x="683.5" y="180.5" width="12.12" height="7.5" as="geometry" />
        </mxCell>
        <mxCell id="Khh3236WJ3ztNvCZFQgd-6" value="" style="endArrow=none;dashed=1;html=1;rounded=0;curved=1;strokeWidth=0.7874;exitX=0.41;exitY=-0.259;exitDx=0;exitDy=0;exitPerimeter=0;" edge="1" parent="1" source="GYeJIsuWpDAbkdzLy3dR-20">
          <mxGeometry width="50" height="50" relative="1" as="geometry">
            <mxPoint x="656.5" y="280" as="sourcePoint" />
            <mxPoint x="677.5" y="195" as="targetPoint" />
            <Array as="points">
              <mxPoint x="672.5" y="231" />
            </Array>
          </mxGeometry>
        </mxCell>
        <mxCell id="Khh3236WJ3ztNvCZFQgd-7" value="&lt;div style=&quot;line-height: 20%;&quot;&gt;&lt;font face=&quot;Verdana&quot;&gt;&lt;span style=&quot;font-size: 4px;&quot;&gt;MAIN BEDROOM&lt;/span&gt;&lt;/font&gt;&lt;/div&gt;" style="text;html=1;align=left;verticalAlign=middle;whiteSpace=wrap;rounded=0;imageVerticalAlign=top;" vertex="1" parent="1">
          <mxGeometry x="649.62" y="217" width="26.88" height="10" as="geometry" />
        </mxCell>
        <mxCell id="Khh3236WJ3ztNvCZFQgd-8" value="" style="pointerEvents=1;verticalLabelPosition=bottom;shadow=0;dashed=0;align=center;html=1;verticalAlign=top;shape=mxgraph.electrical.electro-mechanical.relay_coil_2;strokeWidth=0.7874;" vertex="1" parent="1">
          <mxGeometry x="546.5" y="199" width="11" height="8" as="geometry" />
        </mxCell>
        <mxCell id="Khh3236WJ3ztNvCZFQgd-9" value="" style="pointerEvents=1;verticalLabelPosition=bottom;shadow=0;dashed=0;align=center;html=1;verticalAlign=top;shape=mxgraph.electrical.electro-mechanical.relay_coil_2;strokeWidth=0.7874;" vertex="1" parent="1">
          <mxGeometry x="444" y="199" width="11" height="8" as="geometry" />
        </mxCell>
        <mxCell id="Khh3236WJ3ztNvCZFQgd-10" value="" style="endArrow=none;dashed=1;html=1;rounded=0;curved=1;strokeWidth=0.7874;exitX=0;exitY=0.5;exitDx=0;exitDy=0;exitPerimeter=0;" edge="1" parent="1" source="Khh3236WJ3ztNvCZFQgd-4">
          <mxGeometry width="50" height="50" relative="1" as="geometry">
            <mxPoint x="560.56" y="260" as="sourcePoint" />
            <mxPoint x="556.5" y="203" as="targetPoint" />
            <Array as="points">
              <mxPoint x="622.5" y="221" />
            </Array>
          </mxGeometry>
        </mxCell>
        <mxCell id="Khh3236WJ3ztNvCZFQgd-11" value="&lt;div style=&quot;line-height: 20%;&quot;&gt;&lt;font face=&quot;Verdana&quot;&gt;&lt;span style=&quot;font-size: 4px;&quot;&gt;BEDROOM 2&lt;/span&gt;&lt;/font&gt;&lt;/div&gt;" style="text;html=1;align=left;verticalAlign=middle;whiteSpace=wrap;rounded=0;imageVerticalAlign=top;" vertex="1" parent="1">
          <mxGeometry x="538.56" y="186" width="26.88" height="10" as="geometry" />
        </mxCell>
        <mxCell id="Khh3236WJ3ztNvCZFQgd-12" value="&lt;div style=&quot;line-height: 20%;&quot;&gt;&lt;font face=&quot;Verdana&quot;&gt;&lt;span style=&quot;font-size: 4px;&quot;&gt;BEDROOM 3&lt;/span&gt;&lt;/font&gt;&lt;/div&gt;" style="text;html=1;align=left;verticalAlign=middle;whiteSpace=wrap;rounded=0;imageVerticalAlign=top;" vertex="1" parent="1">
          <mxGeometry x="433.62" y="180.5" width="26.88" height="10" as="geometry" />
        </mxCell>
        <mxCell id="Khh3236WJ3ztNvCZFQgd-13" value="" style="endArrow=none;dashed=1;html=1;rounded=0;curved=1;strokeWidth=0.7874;" edge="1" parent="1">
          <mxGeometry width="50" height="50" relative="1" as="geometry">
            <mxPoint x="546.5" y="204" as="sourcePoint" />
            <mxPoint x="455" y="204" as="targetPoint" />
            <Array as="points">
              <mxPoint x="500.5" y="220" />
            </Array>
          </mxGeometry>
        </mxCell>
        <mxCell id="Khh3236WJ3ztNvCZFQgd-15" value="" style="endArrow=none;dashed=1;html=1;rounded=0;curved=1;strokeWidth=0.7874;" edge="1" parent="1">
          <mxGeometry width="50" height="50" relative="1" as="geometry">
            <mxPoint x="451.5" y="341" as="sourcePoint" />
            <mxPoint x="445.5" y="203" as="targetPoint" />
            <Array as="points">
              <mxPoint x="412.5" y="251" />
            </Array>
          </mxGeometry>
        </mxCell>
        <mxCell id="Khh3236WJ3ztNvCZFQgd-16" value="" style="endArrow=none;dashed=1;html=1;rounded=0;curved=1;strokeWidth=0.7874;" edge="1" parent="1">
          <mxGeometry width="50" height="50" relative="1" as="geometry">
            <mxPoint x="451.5" y="277" as="sourcePoint" />
            <mxPoint x="451.5" y="208" as="targetPoint" />
            <Array as="points">
              <mxPoint x="457.5" y="241" />
            </Array>
          </mxGeometry>
        </mxCell>
        <mxCell id="Khh3236WJ3ztNvCZFQgd-17" value="" style="endArrow=none;dashed=1;html=1;rounded=0;curved=1;strokeWidth=0.7874;" edge="1" parent="1">
          <mxGeometry width="50" height="50" relative="1" as="geometry">
            <mxPoint x="552.5" y="276" as="sourcePoint" />
            <mxPoint x="552.5" y="207" as="targetPoint" />
            <Array as="points">
              <mxPoint x="558.5" y="240" />
            </Array>
          </mxGeometry>
        </mxCell>
        <mxCell id="Khh3236WJ3ztNvCZFQgd-19" value="" style="verticalLabelPosition=bottom;html=1;verticalAlign=top;align=center;shape=mxgraph.floorplan.room;strokeColor=none;fillColor=#000000;" vertex="1" parent="1">
          <mxGeometry x="1022.5" y="324" width="65" height="107" as="geometry" />
        </mxCell>
        <mxCell id="Khh3236WJ3ztNvCZFQgd-20" value="" style="verticalLabelPosition=bottom;html=1;verticalAlign=top;align=center;shape=mxgraph.floorplan.doorLeft;aspect=fixed;strokeColor=light-dark(#000000,#000000);fillColor=default;strokeWidth=0.7874;" vertex="1" parent="1">
          <mxGeometry x="1087.5" y="356" width="24.47" height="26" as="geometry" />
        </mxCell>
        <mxCell id="Khh3236WJ3ztNvCZFQgd-21" value="" style="verticalLabelPosition=bottom;html=1;verticalAlign=top;align=center;shape=mxgraph.floorplan.wall;fillColor=strokeColor;direction=south;strokeColor=light-dark(#000000,#000000);wallThickness=4;" vertex="1" parent="1">
          <mxGeometry x="1015.5" y="239" width="19" height="86" as="geometry" />
        </mxCell>
        <mxCell id="Khh3236WJ3ztNvCZFQgd-22" value="" style="verticalLabelPosition=bottom;html=1;verticalAlign=top;align=center;shape=mxgraph.floorplan.wall;direction=south;strokeColor=light-dark(#000000,#000000);fillColor=#000000;" vertex="1" parent="1">
          <mxGeometry x="1022.5" y="188" width="11" height="52" as="geometry" />
        </mxCell>
        <mxCell id="Khh3236WJ3ztNvCZFQgd-23" value="" style="verticalLabelPosition=bottom;html=1;verticalAlign=top;align=center;shape=mxgraph.floorplan.wall;direction=south;wallThickness=4;rotation=90;" vertex="1" parent="1">
          <mxGeometry x="1026.5" y="172" width="19" height="27" as="geometry" />
        </mxCell>
        <mxCell id="Khh3236WJ3ztNvCZFQgd-24" value="" style="verticalLabelPosition=bottom;html=1;verticalAlign=top;align=center;shape=mxgraph.floorplan.window;fillColor=light-dark(#FFFFFF,#FFFFFF);strokeColor=light-dark(#000000,#000000);wallThickness=5;" vertex="1" parent="1">
          <mxGeometry x="1049.5" y="181" width="90" height="10" as="geometry" />
        </mxCell>
        <mxCell id="Khh3236WJ3ztNvCZFQgd-25" value="" style="verticalLabelPosition=bottom;html=1;verticalAlign=top;align=center;shape=mxgraph.floorplan.wall;direction=south;wallThickness=4;rotation=90;" vertex="1" parent="1">
          <mxGeometry x="1139.5" y="176" width="19" height="19" as="geometry" />
        </mxCell>
        <mxCell id="Khh3236WJ3ztNvCZFQgd-26" value="" style="verticalLabelPosition=bottom;html=1;verticalAlign=top;align=center;shape=mxgraph.floorplan.wall;direction=south;strokeColor=light-dark(#000000,#000000);" vertex="1" parent="1">
          <mxGeometry x="1157.5" y="154" width="11" height="54" as="geometry" />
        </mxCell>
        <mxCell id="Khh3236WJ3ztNvCZFQgd-27" value="" style="verticalLabelPosition=bottom;html=1;verticalAlign=top;align=center;shape=mxgraph.floorplan.wallCorner;direction=north;fillColor=light-dark(#FFFFFF,#FFFFFF);gradientColor=none;strokeColor=light-dark(#000000,#000000);wallThickness=4;" vertex="1" parent="1">
          <mxGeometry x="1157.5" y="208" width="73" height="74" as="geometry" />
        </mxCell>
        <mxCell id="Khh3236WJ3ztNvCZFQgd-28" value="" style="verticalLabelPosition=bottom;html=1;verticalAlign=top;align=center;shape=mxgraph.floorplan.wall;direction=south;wallThickness=4;rotation=90;" vertex="1" parent="1">
          <mxGeometry x="1159.5" y="141" width="19" height="21" as="geometry" />
        </mxCell>
        <mxCell id="Khh3236WJ3ztNvCZFQgd-29" value="" style="verticalLabelPosition=bottom;html=1;verticalAlign=top;align=center;shape=mxgraph.floorplan.window;fillColor=light-dark(#FFFFFF,#FFFFFF);strokeColor=light-dark(#000000,#000000);wallThickness=5;" vertex="1" parent="1">
          <mxGeometry x="1179.5" y="147" width="80" height="10" as="geometry" />
        </mxCell>
        <mxCell id="Khh3236WJ3ztNvCZFQgd-30" value="" style="verticalLabelPosition=bottom;html=1;verticalAlign=top;align=center;shape=mxgraph.floorplan.wall;direction=south;wallThickness=4;rotation=90;" vertex="1" parent="1">
          <mxGeometry x="1260.5" y="142" width="19" height="21" as="geometry" />
        </mxCell>
        <mxCell id="Khh3236WJ3ztNvCZFQgd-31" value="" style="verticalLabelPosition=bottom;html=1;verticalAlign=top;align=center;shape=mxgraph.floorplan.wall;fillColor=strokeColor;direction=south;strokeColor=light-dark(#000000,#000000);wallThickness=11;rotation=-180;" vertex="1" parent="1">
          <mxGeometry x="1370.5" y="155" width="19" height="72" as="geometry" />
        </mxCell>
        <mxCell id="Khh3236WJ3ztNvCZFQgd-32" value="" style="verticalLabelPosition=bottom;html=1;verticalAlign=top;align=center;shape=mxgraph.floorplan.wall;direction=south;wallThickness=4;rotation=90;" vertex="1" parent="1">
          <mxGeometry x="1371.5" y="130" width="19" height="45" as="geometry" />
        </mxCell>
        <mxCell id="Khh3236WJ3ztNvCZFQgd-33" value="" style="verticalLabelPosition=bottom;html=1;verticalAlign=top;align=center;shape=mxgraph.floorplan.wall;direction=south;wallThickness=4;rotation=-180;" vertex="1" parent="1">
          <mxGeometry x="1261.5" y="154" width="20" height="126" as="geometry" />
        </mxCell>
        <mxCell id="Khh3236WJ3ztNvCZFQgd-34" value="" style="verticalLabelPosition=bottom;html=1;verticalAlign=top;align=center;shape=mxgraph.floorplan.wallCorner;direction=north;fillColor=light-dark(#FFFFFF,#FFFFFF);gradientColor=none;strokeColor=light-dark(#000000,#000000);wallThickness=4;rotation=-90;" vertex="1" parent="1">
          <mxGeometry x="1322" y="217.5" width="55" height="73" as="geometry" />
        </mxCell>
        <mxCell id="Khh3236WJ3ztNvCZFQgd-35" value="" style="verticalLabelPosition=bottom;html=1;verticalAlign=top;align=center;shape=mxgraph.floorplan.window;fillColor=light-dark(#FFFFFF,#FFFFFF);strokeColor=light-dark(#000000,#000000);wallThickness=5;" vertex="1" parent="1">
          <mxGeometry x="1280.5" y="147" width="78" height="10" as="geometry" />
        </mxCell>
        <mxCell id="Khh3236WJ3ztNvCZFQgd-36" value="" style="verticalLabelPosition=bottom;html=1;verticalAlign=top;align=center;shape=mxgraph.floorplan.window;fillColor=light-dark(#FFFFFF,#FFFFFF);strokeColor=light-dark(#000000,#000000);wallThickness=5;" vertex="1" parent="1">
          <mxGeometry x="1403.5" y="147" width="78" height="10" as="geometry" />
        </mxCell>
        <mxCell id="Khh3236WJ3ztNvCZFQgd-37" value="" style="verticalLabelPosition=bottom;html=1;verticalAlign=top;align=center;shape=mxgraph.floorplan.wall;direction=south;wallThickness=4;rotation=90;" vertex="1" parent="1">
          <mxGeometry x="1484" y="139.5" width="19" height="24" as="geometry" />
        </mxCell>
        <mxCell id="Khh3236WJ3ztNvCZFQgd-38" value="" style="verticalLabelPosition=bottom;html=1;verticalAlign=top;align=center;shape=mxgraph.floorplan.wall;fillColor=strokeColor;direction=south;strokeColor=light-dark(#000000,#000000);wallThickness=10;rotation=-180;" vertex="1" parent="1">
          <mxGeometry x="1491.5" y="154" width="19" height="38" as="geometry" />
        </mxCell>
        <mxCell id="Khh3236WJ3ztNvCZFQgd-39" value="" style="verticalLabelPosition=bottom;html=1;verticalAlign=top;align=center;shape=mxgraph.floorplan.window;fillColor=light-dark(#FFFFFF,#FFFFFF);strokeColor=light-dark(#000000,#000000);wallThickness=10;rotation=90;" vertex="1" parent="1">
          <mxGeometry x="1445.25" y="242.75" width="111.5" height="10" as="geometry" />
        </mxCell>
        <mxCell id="Khh3236WJ3ztNvCZFQgd-40" value="" style="verticalLabelPosition=bottom;html=1;verticalAlign=top;align=center;shape=mxgraph.floorplan.wall;direction=south;wallThickness=10;rotation=-180;" vertex="1" parent="1">
          <mxGeometry x="1491.5" y="303" width="19" height="21" as="geometry" />
        </mxCell>
        <mxCell id="Khh3236WJ3ztNvCZFQgd-41" value="" style="verticalLabelPosition=bottom;html=1;verticalAlign=top;align=center;shape=mxgraph.floorplan.wallCorner;fillColor=strokeColor;wallThickness=9;" vertex="1" parent="1">
          <mxGeometry x="1453.5" y="324" width="52" height="80" as="geometry" />
        </mxCell>
        <mxCell id="Khh3236WJ3ztNvCZFQgd-42" value="" style="verticalLabelPosition=bottom;html=1;verticalAlign=top;align=center;shape=mxgraph.floorplan.wall;direction=south;wallThickness=4;rotation=90;" vertex="1" parent="1">
          <mxGeometry x="1427.5" y="310" width="19" height="33" as="geometry" />
        </mxCell>
        <mxCell id="Khh3236WJ3ztNvCZFQgd-43" value="" style="verticalLabelPosition=bottom;html=1;verticalAlign=top;align=center;shape=mxgraph.floorplan.wall;direction=south;wallThickness=4;rotation=90;" vertex="1" parent="1">
          <mxGeometry x="1352" y="300.5" width="19" height="52" as="geometry" />
        </mxCell>
        <mxCell id="Khh3236WJ3ztNvCZFQgd-44" value="" style="verticalLabelPosition=bottom;html=1;verticalAlign=top;align=center;shape=mxgraph.floorplan.wall;direction=south;wallThickness=3;rotation=-180;" vertex="1" parent="1">
          <mxGeometry x="1356.5" y="329" width="20" height="66" as="geometry" />
        </mxCell>
        <mxCell id="Khh3236WJ3ztNvCZFQgd-45" value="" style="verticalLabelPosition=bottom;html=1;verticalAlign=top;align=center;shape=mxgraph.floorplan.wall;direction=south;wallThickness=3;rotation=90;fillOpacity=100;" vertex="1" parent="1">
          <mxGeometry x="1368.5" y="383" width="19" height="26" as="geometry" />
        </mxCell>
        <mxCell id="Khh3236WJ3ztNvCZFQgd-46" value="" style="verticalLabelPosition=bottom;html=1;verticalAlign=top;align=center;shape=mxgraph.floorplan.wall;direction=south;wallThickness=3;rotation=90;fillOpacity=100;" vertex="1" parent="1">
          <mxGeometry x="1427" y="379.5" width="19" height="33" as="geometry" />
        </mxCell>
        <mxCell id="Khh3236WJ3ztNvCZFQgd-47" value="" style="verticalLabelPosition=bottom;html=1;verticalAlign=top;align=center;shape=mxgraph.floorplan.window;fillColor=light-dark(#FFFFFF,#FFFFFF);strokeColor=light-dark(#000000,#000000);wallThickness=3;strokeWidth=0.3937;" vertex="1" parent="1">
          <mxGeometry x="1391.5" y="391" width="28" height="10" as="geometry" />
        </mxCell>
        <mxCell id="Khh3236WJ3ztNvCZFQgd-48" value="" style="verticalLabelPosition=bottom;html=1;verticalAlign=top;align=center;shape=mxgraph.floorplan.wall;fillColor=strokeColor;direction=south;strokeColor=light-dark(#000000,#000000);wallThickness=10;rotation=-180;" vertex="1" parent="1">
          <mxGeometry x="1281.5" y="324" width="19" height="80" as="geometry" />
        </mxCell>
        <mxCell id="Khh3236WJ3ztNvCZFQgd-49" value="" style="verticalLabelPosition=bottom;html=1;verticalAlign=top;align=center;shape=mxgraph.floorplan.wall;fillColor=strokeColor;wallThickness=9;" vertex="1" parent="1">
          <mxGeometry x="1146.5" y="488" width="220" height="10" as="geometry" />
        </mxCell>
        <mxCell id="Khh3236WJ3ztNvCZFQgd-50" value="" style="verticalLabelPosition=bottom;html=1;verticalAlign=top;align=center;shape=mxgraph.floorplan.wall;fillColor=strokeColor;direction=south;strokeColor=light-dark(#000000,#000000);wallThickness=10;rotation=-180;" vertex="1" parent="1">
          <mxGeometry x="1154.5" y="387" width="19" height="44" as="geometry" />
        </mxCell>
        <mxCell id="Khh3236WJ3ztNvCZFQgd-51" value="" style="verticalLabelPosition=bottom;html=1;verticalAlign=top;align=center;shape=mxgraph.floorplan.wall;direction=south;wallThickness=3;rotation=-180;" vertex="1" parent="1">
          <mxGeometry x="1157.5" y="431" width="20" height="57" as="geometry" />
        </mxCell>
        <mxCell id="Khh3236WJ3ztNvCZFQgd-52" value="" style="verticalLabelPosition=bottom;html=1;verticalAlign=top;align=center;shape=mxgraph.floorplan.wall;direction=south;wallThickness=3;rotation=90;fillOpacity=100;" vertex="1" parent="1">
          <mxGeometry x="1321" y="362" width="19" height="69" as="geometry" />
        </mxCell>
        <mxCell id="Khh3236WJ3ztNvCZFQgd-53" value="" style="verticalLabelPosition=bottom;html=1;verticalAlign=top;align=center;shape=mxgraph.floorplan.wall;direction=south;wallThickness=3;rotation=-180;" vertex="1" parent="1">
          <mxGeometry x="1277.5" y="405" width="20" height="16" as="geometry" />
        </mxCell>
        <mxCell id="Khh3236WJ3ztNvCZFQgd-54" value="" style="verticalLabelPosition=bottom;html=1;verticalAlign=top;align=center;shape=mxgraph.floorplan.wall;direction=south;wallThickness=3;rotation=-180;" vertex="1" parent="1">
          <mxGeometry x="1277.5" y="458" width="20" height="30" as="geometry" />
        </mxCell>
        <mxCell id="Khh3236WJ3ztNvCZFQgd-55" value="" style="verticalLabelPosition=bottom;html=1;verticalAlign=top;align=center;shape=mxgraph.floorplan.wall;direction=south;wallThickness=5;rotation=-180;" vertex="1" parent="1">
          <mxGeometry x="1331.5" y="398" width="20" height="91" as="geometry" />
        </mxCell>
        <mxCell id="Khh3236WJ3ztNvCZFQgd-56" value="" style="verticalLabelPosition=bottom;html=1;verticalAlign=top;align=center;shape=mxgraph.floorplan.doorRight;aspect=fixed;rotation=-180;" vertex="1" parent="1">
          <mxGeometry x="1275.5" y="242" width="37" height="39.31" as="geometry" />
        </mxCell>
        <mxCell id="Khh3236WJ3ztNvCZFQgd-57" value="" style="verticalLabelPosition=bottom;html=1;verticalAlign=top;align=center;shape=mxgraph.floorplan.doorLeft;aspect=fixed;rotation=-180;" vertex="1" parent="1">
          <mxGeometry x="1230.8" y="242" width="36.7" height="39" as="geometry" />
        </mxCell>
        <mxCell id="Khh3236WJ3ztNvCZFQgd-58" value="" style="verticalLabelPosition=bottom;html=1;verticalAlign=top;align=center;shape=mxgraph.floorplan.wall;direction=south;wallThickness=4;rotation=90;snapToPoint=0;" vertex="1" parent="1">
          <mxGeometry x="1262.5" y="275" width="19" height="8" as="geometry" />
        </mxCell>
        <mxCell id="Khh3236WJ3ztNvCZFQgd-59" value="" style="verticalLabelPosition=bottom;html=1;verticalAlign=top;align=center;shape=mxgraph.floorplan.doorLeft;aspect=fixed;rotation=-180;strokeWidth=0.7874;" vertex="1" parent="1">
          <mxGeometry x="1108.41" y="387" width="33.88" height="36" as="geometry" />
        </mxCell>
        <mxCell id="Khh3236WJ3ztNvCZFQgd-60" value="" style="verticalLabelPosition=bottom;html=1;verticalAlign=top;align=center;shape=mxgraph.floorplan.doorRight;aspect=fixed;rotation=0;strokeWidth=0.7874;" vertex="1" parent="1">
          <mxGeometry x="1108.5" y="425" width="33.71" height="35.81" as="geometry" />
        </mxCell>
        <mxCell id="Khh3236WJ3ztNvCZFQgd-61" value="" style="verticalLabelPosition=bottom;html=1;verticalAlign=top;align=center;shape=mxgraph.floorplan.wall;direction=south;wallThickness=12;rotation=-90;" vertex="1" parent="1">
          <mxGeometry x="1140.5" y="416" width="20" height="16" as="geometry" />
        </mxCell>
        <mxCell id="Khh3236WJ3ztNvCZFQgd-62" value="" style="verticalLabelPosition=bottom;html=1;verticalAlign=top;align=center;shape=mxgraph.floorplan.doorRight;aspect=fixed;rotation=-180;strokeWidth=0.7874;" vertex="1" parent="1">
          <mxGeometry x="1097.5" y="411" width="10.71" height="11.38" as="geometry" />
        </mxCell>
        <mxCell id="Khh3236WJ3ztNvCZFQgd-63" value="" style="verticalLabelPosition=bottom;html=1;verticalAlign=top;align=center;shape=mxgraph.floorplan.doorLeft;aspect=fixed;rotation=0;strokeWidth=0.7874;" vertex="1" parent="1">
          <mxGeometry x="1097.5" y="425" width="10.35" height="11" as="geometry" />
        </mxCell>
        <mxCell id="Khh3236WJ3ztNvCZFQgd-64" value="" style="verticalLabelPosition=bottom;html=1;verticalAlign=top;align=center;shape=mxgraph.floorplan.wall;direction=south;wallThickness=12;rotation=-90;" vertex="1" parent="1">
          <mxGeometry x="1082" y="418.5" width="20" height="11" as="geometry" />
        </mxCell>
        <mxCell id="Khh3236WJ3ztNvCZFQgd-69" value="" style="rounded=0;whiteSpace=wrap;html=1;" vertex="1" parent="1">
          <mxGeometry x="1150.5" y="388" width="8" height="27" as="geometry" />
        </mxCell>
        <mxCell id="Khh3236WJ3ztNvCZFQgd-73" value="&lt;font face=&quot;Verdana&quot; style=&quot;font-size: 4px;&quot;&gt;S1-1&lt;/font&gt;" style="text;html=1;align=center;verticalAlign=middle;whiteSpace=wrap;rounded=0;imageVerticalAlign=top;" vertex="1" parent="1">
          <mxGeometry x="1075.5" y="430.5" width="12" height="7.5" as="geometry" />
        </mxCell>
        <mxCell id="Khh3236WJ3ztNvCZFQgd-74" value="&lt;font face=&quot;Verdana&quot; style=&quot;font-size: 4px;&quot;&gt;S1-2&lt;/font&gt;" style="text;html=1;align=center;verticalAlign=middle;whiteSpace=wrap;rounded=0;imageVerticalAlign=top;" vertex="1" parent="1">
          <mxGeometry x="1085.5" y="430" width="13.25" height="7.5" as="geometry" />
        </mxCell>
        <mxCell id="Khh3236WJ3ztNvCZFQgd-81" value="" style="endArrow=none;html=1;rounded=0;entryX=0.42;entryY=0.409;entryDx=0;entryDy=0;entryPerimeter=0;strokeWidth=0.7874;opacity=30;" edge="1" parent="1" target="Khh3236WJ3ztNvCZFQgd-23">
          <mxGeometry width="50" height="50" relative="1" as="geometry">
            <mxPoint x="1038.5" y="324" as="sourcePoint" />
            <mxPoint x="1038.507" y="233.99099999999999" as="targetPoint" />
          </mxGeometry>
        </mxCell>
        <mxCell id="Khh3236WJ3ztNvCZFQgd-82" value="" style="endArrow=none;html=1;rounded=0;opacity=30;" edge="1" parent="1">
          <mxGeometry width="50" height="50" relative="1" as="geometry">
            <mxPoint x="1157.5" y="195" as="sourcePoint" />
            <mxPoint x="1038.5" y="195" as="targetPoint" />
          </mxGeometry>
        </mxCell>
        <mxCell id="Khh3236WJ3ztNvCZFQgd-83" value="" style="endArrow=none;html=1;rounded=0;opacity=30;" edge="1" parent="1">
          <mxGeometry width="50" height="50" relative="1" as="geometry">
            <mxPoint x="1038.5" y="313" as="sourcePoint" />
            <mxPoint x="1084.5" y="313" as="targetPoint" />
          </mxGeometry>
        </mxCell>
        <mxCell id="Khh3236WJ3ztNvCZFQgd-84" value="" style="endArrow=none;html=1;rounded=0;opacity=30;" edge="1" parent="1">
          <mxGeometry width="50" height="50" relative="1" as="geometry">
            <mxPoint x="1095.5" y="418" as="sourcePoint" />
            <mxPoint x="1095.5" y="324" as="targetPoint" />
          </mxGeometry>
        </mxCell>
        <mxCell id="Khh3236WJ3ztNvCZFQgd-85" value="" style="endArrow=none;html=1;rounded=0;curved=1;opacity=30;" edge="1" parent="1">
          <mxGeometry width="50" height="50" relative="1" as="geometry">
            <mxPoint x="1084.5" y="313" as="sourcePoint" />
            <mxPoint x="1095.5" y="324" as="targetPoint" />
            <Array as="points">
              <mxPoint x="1095.5" y="313" />
            </Array>
          </mxGeometry>
        </mxCell>
        <mxCell id="Khh3236WJ3ztNvCZFQgd-86" value="&lt;div style=&quot;line-height: 20%;&quot;&gt;&lt;font face=&quot;Verdana&quot; style=&quot;font-size: 4px; line-height: 20%;&quot;&gt;LIVING/&lt;/font&gt;&lt;div&gt;&lt;font face=&quot;Verdana&quot; style=&quot;font-size: 4px; line-height: 20%;&quot;&gt;DINING&lt;/font&gt;&lt;/div&gt;&lt;/div&gt;" style="text;html=1;align=center;verticalAlign=middle;whiteSpace=wrap;rounded=0;imageVerticalAlign=top;" vertex="1" parent="1">
          <mxGeometry x="1067.85" y="217.5" width="40" height="10" as="geometry" />
        </mxCell>
        <mxCell id="Khh3236WJ3ztNvCZFQgd-91" value="&lt;div style=&quot;line-height: 20%;&quot;&gt;&lt;font face=&quot;Verdana&quot;&gt;&lt;span style=&quot;font-size: 4px;&quot;&gt;STOREROOM&lt;/span&gt;&lt;/font&gt;&lt;/div&gt;" style="text;html=1;align=center;verticalAlign=middle;whiteSpace=wrap;rounded=0;imageVerticalAlign=top;" vertex="1" parent="1">
          <mxGeometry x="1036.25" y="357" width="40" height="10" as="geometry" />
        </mxCell>
        <mxCell id="Khh3236WJ3ztNvCZFQgd-96" value="&lt;div style=&quot;line-height: 20%;&quot;&gt;&lt;font face=&quot;Verdana&quot;&gt;&lt;span style=&quot;font-size: 4px;&quot;&gt;KITCHEN&lt;/span&gt;&lt;/font&gt;&lt;/div&gt;" style="text;html=1;align=center;verticalAlign=middle;whiteSpace=wrap;rounded=0;imageVerticalAlign=top;" vertex="1" parent="1">
          <mxGeometry x="1212.75" y="428" width="40" height="10" as="geometry" />
        </mxCell>
        <mxCell id="Khh3236WJ3ztNvCZFQgd-103" value="&lt;div style=&quot;line-height: 20%;&quot;&gt;&lt;font face=&quot;Verdana&quot;&gt;&lt;span style=&quot;font-size: 4px;&quot;&gt;SERVICE YARD&lt;/span&gt;&lt;/font&gt;&lt;/div&gt;" style="text;html=1;align=center;verticalAlign=middle;whiteSpace=wrap;rounded=0;imageVerticalAlign=top;" vertex="1" parent="1">
          <mxGeometry x="1292.5" y="461" width="40" height="10" as="geometry" />
        </mxCell>
        <mxCell id="Khh3236WJ3ztNvCZFQgd-108" value="" style="endArrow=none;html=1;rounded=0;opacity=30;" edge="1" parent="1">
          <mxGeometry width="50" height="50" relative="1" as="geometry">
            <mxPoint x="1194.5" y="467" as="sourcePoint" />
            <mxPoint x="1285.5" y="467" as="targetPoint" />
          </mxGeometry>
        </mxCell>
        <mxCell id="Khh3236WJ3ztNvCZFQgd-109" value="" style="endArrow=none;html=1;rounded=0;opacity=30;" edge="1" parent="1">
          <mxGeometry width="50" height="50" relative="1" as="geometry">
            <mxPoint x="1169.5" y="393" as="sourcePoint" />
            <mxPoint x="1194.5" y="393" as="targetPoint" />
          </mxGeometry>
        </mxCell>
        <mxCell id="Khh3236WJ3ztNvCZFQgd-110" value="" style="endArrow=none;html=1;rounded=0;opacity=30;" edge="1" parent="1">
          <mxGeometry width="50" height="50" relative="1" as="geometry">
            <mxPoint x="1194.5" y="393" as="sourcePoint" />
            <mxPoint x="1194.5" y="467" as="targetPoint" />
          </mxGeometry>
        </mxCell>
        <mxCell id="Khh3236WJ3ztNvCZFQgd-113" value="4R-1(H), 4R-1A(H)&lt;div&gt;&lt;b&gt;CONCEALED CONDUITS IN FLOOR SLAB&lt;/b&gt;&lt;/div&gt;&lt;div&gt;(SWITCHED SOCKET OUTLETS, RJ45 OUTLETS, TV INLET/OUTLETS &amp;amp; AIR-CON ISOLATOR)&lt;/div&gt;" style="text;html=1;align=left;verticalAlign=middle;whiteSpace=wrap;rounded=0;fontSize=7;" vertex="1" parent="1">
          <mxGeometry x="1165.5" y="518" width="152" height="30" as="geometry" />
        </mxCell>
        <mxCell id="Khh3236WJ3ztNvCZFQgd-117" value="" style="endArrow=none;html=1;rounded=0;opacity=30;" edge="1" parent="1">
          <mxGeometry width="50" height="50" relative="1" as="geometry">
            <mxPoint x="1296" y="378" as="sourcePoint" />
            <mxPoint x="1347.5" y="378" as="targetPoint" />
          </mxGeometry>
        </mxCell>
        <mxCell id="Khh3236WJ3ztNvCZFQgd-118" value="" style="endArrow=none;html=1;rounded=0;opacity=30;" edge="1" parent="1">
          <mxGeometry width="50" height="50" relative="1" as="geometry">
            <mxPoint x="1347.5" y="378" as="sourcePoint" />
            <mxPoint x="1347.5" y="329" as="targetPoint" />
          </mxGeometry>
        </mxCell>
        <mxCell id="Khh3236WJ3ztNvCZFQgd-125" value="&lt;font face=&quot;Verdana&quot; style=&quot;font-size: 4px;&quot;&gt;S2-5&lt;/font&gt;" style="text;html=1;align=center;verticalAlign=middle;whiteSpace=wrap;rounded=0;imageVerticalAlign=top;" vertex="1" parent="1">
          <mxGeometry x="1313.44" y="378" width="12.12" height="7.5" as="geometry" />
        </mxCell>
        <mxCell id="Khh3236WJ3ztNvCZFQgd-127" value="&lt;font style=&quot;font-size: 4px;&quot;&gt;LED - Cove L-box&lt;/font&gt;" style="text;html=1;align=center;verticalAlign=middle;whiteSpace=wrap;rounded=0;rotation=-90;" vertex="1" parent="1">
          <mxGeometry x="1019.5" y="281" width="41" height="7" as="geometry" />
        </mxCell>
        <mxCell id="Khh3236WJ3ztNvCZFQgd-132" value="" style="endArrow=none;html=1;rounded=0;opacity=30;" edge="1" parent="1">
          <mxGeometry width="50" height="50" relative="1" as="geometry">
            <mxPoint x="1387.5" y="378" as="sourcePoint" />
            <mxPoint x="1387.5" y="329" as="targetPoint" />
          </mxGeometry>
        </mxCell>
        <mxCell id="Khh3236WJ3ztNvCZFQgd-133" value="" style="endArrow=none;html=1;rounded=0;opacity=30;" edge="1" parent="1">
          <mxGeometry width="50" height="50" relative="1" as="geometry">
            <mxPoint x="1387.5" y="378" as="sourcePoint" />
            <mxPoint x="1452.5" y="378" as="targetPoint" />
          </mxGeometry>
        </mxCell>
        <mxCell id="Khh3236WJ3ztNvCZFQgd-144" value="&lt;div style=&quot;line-height: 20%;&quot;&gt;&lt;font face=&quot;Verdana&quot;&gt;&lt;span style=&quot;font-size: 4px;&quot;&gt;MAIN BEDROOM&lt;/span&gt;&lt;/font&gt;&lt;/div&gt;" style="text;html=1;align=left;verticalAlign=middle;whiteSpace=wrap;rounded=0;imageVerticalAlign=top;" vertex="1" parent="1">
          <mxGeometry x="1419.62" y="217" width="26.88" height="10" as="geometry" />
        </mxCell>
        <mxCell id="Khh3236WJ3ztNvCZFQgd-148" value="&lt;div style=&quot;line-height: 20%;&quot;&gt;&lt;font face=&quot;Verdana&quot;&gt;&lt;span style=&quot;font-size: 4px;&quot;&gt;BEDROOM 2&lt;/span&gt;&lt;/font&gt;&lt;/div&gt;" style="text;html=1;align=left;verticalAlign=middle;whiteSpace=wrap;rounded=0;imageVerticalAlign=top;" vertex="1" parent="1">
          <mxGeometry x="1308.56" y="186" width="26.88" height="10" as="geometry" />
        </mxCell>
        <mxCell id="Khh3236WJ3ztNvCZFQgd-149" value="&lt;div style=&quot;line-height: 20%;&quot;&gt;&lt;font face=&quot;Verdana&quot;&gt;&lt;span style=&quot;font-size: 4px;&quot;&gt;BEDROOM 3&lt;/span&gt;&lt;/font&gt;&lt;/div&gt;" style="text;html=1;align=left;verticalAlign=middle;whiteSpace=wrap;rounded=0;imageVerticalAlign=top;" vertex="1" parent="1">
          <mxGeometry x="1203.62" y="180.5" width="26.88" height="10" as="geometry" />
        </mxCell>
        <mxCell id="Khh3236WJ3ztNvCZFQgd-155" value="LIGHTING SWITCH LAYER" style="text;html=1;align=center;verticalAlign=middle;whiteSpace=wrap;rounded=0;" vertex="1" parent="1">
          <mxGeometry x="465" y="80" width="118" height="30" as="geometry" />
        </mxCell>
        <mxCell id="Khh3236WJ3ztNvCZFQgd-156" value="POWER POINT LAYER" style="text;html=1;align=center;verticalAlign=middle;whiteSpace=wrap;rounded=0;" vertex="1" parent="1">
          <mxGeometry x="1240" y="80" width="118" height="30" as="geometry" />
        </mxCell>
        <mxCell id="Khh3236WJ3ztNvCZFQgd-157" value="UPDATED ELECTRICAL PLAN POST RENOVATION" style="text;html=1;align=center;verticalAlign=middle;whiteSpace=wrap;rounded=0;" vertex="1" parent="1">
          <mxGeometry x="786.75" y="30" width="180" height="30" as="geometry" />
        </mxCell>
      </root>
    </mxGraphModel>
  </diagram>
</mxfile>
